<?xml version="1.0" standalone="no"?>
<!DOCTYPE svg PUBLIC "-//W3C//DTD SVG 20010904//EN"
 "http://www.w3.org/TR/2001/REC-SVG-20010904/DTD/svg10.dtd">
<svg version="1.0" xmlns="http://www.w3.org/2000/svg"
 width="512.000000pt" height="512.000000pt" viewBox="0 0 512.000000 512.000000"
 preserveAspectRatio="xMidYMid meet">
<metadata>
Created by potrace 1.11, written by Peter Selinger 2001-2013
</metadata>
<g transform="translate(0.000000,512.000000) scale(0.100000,-0.100000)"
fill="#000000" stroke="none">
<path d="M0 3055 c0 -1370 3 -2065 10 -2065 6 0 10 -5 10 -11 0 -5 -4 -7 -10
-4 -6 4 -7 -1 -3 -11 4 -11 8 -13 11 -6 3 9 7 8 17 -1 7 -7 10 -16 7 -22 -3
-5 2 -4 11 4 15 12 17 10 13 -16 -2 -20 1 -30 10 -30 7 0 11 4 8 9 -10 16 13
8 30 -11 12 -13 14 -21 6 -26 -7 -4 0 -15 19 -29 17 -13 28 -26 25 -29 -3 -3
3 -3 15 0 12 3 21 1 21 -6 0 -6 9 -11 19 -11 12 0 24 -11 30 -27 9 -22 10 -23
7 -5 -4 19 -2 21 10 11 7 -6 12 -14 10 -18 -3 -4 8 -6 25 -5 16 1 27 -2 24 -7
-3 -4 -13 -5 -23 -2 -13 4 -13 2 3 -10 11 -9 25 -16 30 -17 6 0 3 5 -5 10 -11
7 -12 10 -2 10 21 0 45 -27 29 -33 -6 -3 -1 -4 13 -3 14 1 30 5 36 9 6 3 23
-5 39 -19 16 -13 40 -27 54 -31 14 -3 29 -11 33 -17 5 -8 8 -7 8 1 0 7 -7 16
-16 21 -11 6 -13 11 -5 16 6 4 11 2 11 -4 0 -6 5 -8 10 -5 6 4 10 3 9 -2 -3
-20 2 -34 11 -28 6 4 7 11 4 17 -4 7 -2 8 5 4 6 -4 8 -12 5 -18 -5 -7 4 -9 24
-6 25 3 29 2 21 -8 -9 -11 -4 -12 20 -9 30 3 66 -18 57 -34 -3 -4 2 -8 10 -8
10 0 11 4 4 11 -5 5 -10 15 -10 21 0 5 4 4 9 -3 4 -7 26 -14 48 -15 23 -1 40
-4 38 -7 -2 -3 0 -12 6 -20 7 -13 9 -12 9 2 0 9 5 20 12 24 7 5 8 3 3 -6 -6
-9 -4 -12 7 -8 8 4 15 0 15 -8 0 -7 -4 -11 -8 -9 -3 3 -13 -3 -20 -13 -12 -15
-12 -16 2 -5 12 10 18 10 29 0 10 -9 11 -9 6 1 -4 6 -2 12 3 12 6 0 11 -5 11
-11 0 -8 6 -7 17 2 9 8 14 9 10 3 -4 -7 0 -14 8 -18 8 -3 17 0 21 6 5 7 2 8
-6 3 -9 -5 -11 -4 -6 4 4 6 12 9 17 5 5 -3 7 -9 4 -14 -7 -12 26 -29 44 -22 9
3 11 0 6 -8 -6 -9 -4 -11 4 -5 7 4 11 16 8 26 -3 11 -1 16 5 13 5 -4 8 -17 5
-30 -5 -26 7 -41 18 -24 4 6 11 7 17 4 7 -5 8 -2 3 6 -9 15 7 6 37 -19 10 -9
22 -15 26 -14 4 1 13 -4 21 -10 12 -10 13 -9 6 2 -6 11 -4 13 9 8 10 -4 19 -7
22 -7 2 0 1 -8 -3 -17 -5 -17 -5 -17 8 -1 11 13 18 15 29 7 12 -9 11 -10 -5
-4 -16 5 -17 4 -8 -6 10 -10 16 -9 31 4 18 17 20 16 33 0 13 -16 12 -17 -3 -5
-9 8 -19 9 -22 4 -3 -6 3 -12 14 -15 11 -3 23 -1 26 4 7 12 24 11 24 -2 0 -5
-6 -7 -12 -3 -8 5 -8 1 2 -12 8 -10 16 -21 17 -23 2 -2 12 4 22 13 19 17 19
17 14 -4 -5 -20 -4 -21 17 -8 18 10 24 10 27 1 3 -9 10 -10 22 -4 13 7 24 4
42 -12 14 -12 19 -18 12 -14 -6 5 -18 5 -24 1 -8 -5 -9 -3 -4 6 6 9 4 11 -5 5
-9 -6 -11 -4 -5 5 5 9 4 11 -4 6 -9 -6 -9 -11 0 -22 6 -7 16 -11 21 -8 6 4 14
0 19 -7 6 -11 11 -11 20 -2 15 15 56 -3 62 -26 4 -14 5 -13 6 2 0 9 6 17 12
17 6 0 9 -7 6 -15 -8 -21 7 -27 38 -15 14 5 24 6 21 2 -2 -4 -1 -14 5 -22 7
-13 9 -13 9 0 0 13 1 13 10 0 6 -10 10 -11 10 -2 0 6 5 12 11 12 5 0 7 -4 4
-10 -8 -13 1 -13 28 2 21 11 21 10 7 -7 -14 -17 -13 -18 3 -12 13 5 17 2 15
-10 -2 -12 5 -17 27 -18 17 -1 39 -6 49 -10 12 -5 17 -5 13 1 -3 5 3 10 13 10
11 0 16 -5 12 -14 -4 -11 0 -13 18 -7 17 5 21 4 15 -6 -6 -9 -2 -11 14 -6 17
4 20 3 11 -7 -8 -10 -3 -13 25 -10 19 1 33 -2 29 -7 -3 -5 -1 -9 5 -9 5 0 12
6 14 13 3 6 6 1 7 -13 l2 -25 8 25 c4 14 8 18 9 9 1 -24 37 -53 46 -38 6 8 10
7 17 -4 7 -13 14 -14 34 -7 20 8 26 6 31 -7 6 -15 7 -14 14 3 7 18 8 18 8 0 1
-15 6 -17 29 -12 15 4 22 3 15 -1 -8 -6 -8 -13 3 -27 8 -11 14 -14 14 -8 0 7
5 12 11 12 5 0 8 -4 4 -9 -3 -5 -1 -13 5 -16 6 -4 9 -1 8 6 -2 6 3 14 11 17 8
2 11 0 7 -6 -7 -11 13 -21 32 -15 6 3 9 10 6 15 -4 7 -2 8 4 4 9 -5 9 -13 1
-29 -12 -21 -11 -22 8 -4 18 15 22 16 32 3 7 -8 10 -20 6 -26 -3 -5 -1 -10 4
-10 6 0 11 7 11 15 0 12 4 11 20 -5 11 -11 25 -20 32 -20 6 0 4 6 -5 13 -16
11 -15 12 7 12 16 0 23 -5 21 -15 -2 -10 4 -16 15 -16 10 0 16 5 13 11 -2 7 3
12 11 12 8 0 13 -4 11 -8 -3 -4 2 -9 9 -12 10 -4 13 0 11 14 -3 16 -1 18 9 10
10 -8 17 -7 26 4 11 13 16 14 34 1 20 -12 22 -12 23 5 1 12 -3 17 -9 13 -7 -5
-8 -2 -4 5 5 7 10 10 13 7 3 -3 15 -1 26 5 14 8 18 8 13 0 -4 -6 -2 -11 3 -11
6 0 11 4 11 9 0 13 37 20 48 9 6 -6 12 -5 17 3 6 8 4 10 -5 4 -9 -5 -11 -4 -6
4 4 6 13 8 19 4 6 -4 19 -8 29 -8 14 -1 15 2 7 18 -6 10 -8 21 -5 25 3 3 6 0
6 -6 0 -15 36 -16 45 -2 3 5 11 10 16 10 6 0 7 -4 4 -10 -3 -5 -4 -10 0 -10 3
0 10 10 15 23 8 20 9 20 10 2 0 -16 2 -17 9 -6 8 13 12 13 28 1 16 -13 16 -12
-1 8 l-19 22 32 -11 c18 -6 35 -9 38 -5 4 3 -1 6 -10 6 -25 0 -28 15 -4 30 19
12 21 11 9 -2 -10 -13 -9 -15 13 -10 14 2 25 9 25 14 0 5 5 6 10 3 6 -4 7 -12
3 -18 -4 -7 0 -7 10 1 9 8 15 17 14 20 -1 4 2 7 8 7 5 0 9 -7 7 -15 -2 -11 1
-10 12 4 8 10 19 15 25 11 7 -3 8 0 5 9 -3 9 -11 13 -17 9 -5 -3 -7 -1 -4 5 8
11 25 11 44 -1 6 -4 15 -2 19 4 5 8 3 9 -6 4 -8 -5 -11 -4 -7 3 4 5 16 8 27 5
12 -3 20 0 20 8 0 8 5 5 14 -6 13 -18 14 -17 11 8 -2 15 1 29 5 32 5 3 7 -3 5
-15 -2 -11 0 -22 6 -25 8 -6 14 16 10 38 -1 4 8 3 19 -3 13 -7 20 -7 20 0 0 5
5 10 11 10 5 0 8 -4 5 -8 -3 -5 1 -9 8 -9 8 0 12 7 8 15 -3 9 -1 13 5 9 6 -4
16 0 23 8 7 8 16 12 21 10 4 -3 12 3 18 12 6 10 11 13 11 8 0 -6 -5 -16 -11
-22 -8 -8 -7 -13 2 -18 8 -6 10 -4 4 5 -6 10 -4 12 9 7 13 -5 17 -3 13 7 -3 7
-1 18 5 24 13 13 40 4 31 -12 -4 -7 -1 -7 9 1 8 7 19 9 23 5 5 -4 5 -2 2 4 -4
7 0 14 8 18 8 3 14 2 12 -2 -1 -4 2 -8 8 -9 5 -2 10 5 10 15 0 9 6 18 13 18 6
1 13 2 15 4 9 7 36 6 31 -1 -3 -5 -10 -7 -15 -4 -5 4 -9 1 -9 -5 0 -7 -7 -10
-14 -7 -10 4 -13 1 -9 -8 4 -12 9 -12 32 4 14 10 30 19 34 19 5 0 12 4 15 8 4
4 1 4 -5 0 -7 -4 -13 -2 -13 4 0 6 10 8 25 4 21 -5 24 -3 19 12 -3 11 -2 15 3
9 14 -17 46 -18 40 -2 -8 20 2 28 22 18 14 -8 44 9 38 21 -1 2 5 -4 14 -14 14
-15 18 -15 22 -3 4 8 15 12 29 10 22 -4 22 -4 4 10 -27 21 -6 19 23 -2 18 -12
22 -13 15 -2 -4 8 -10 23 -11 34 -2 17 0 16 12 -5 13 -21 15 -22 13 -5 -2 14
3 20 17 19 11 0 23 5 27 11 5 7 8 6 8 -1 0 -7 7 -14 14 -17 10 -4 13 -1 9 9
-4 10 0 12 13 7 12 -4 15 -3 10 5 -4 8 -2 10 8 6 8 -3 13 -13 10 -22 -2 -9 2
-4 9 11 17 35 39 50 49 34 5 -9 10 -9 20 1 15 15 32 16 22 1 -4 -8 -1 -8 12
-1 11 5 26 7 34 5 13 -4 13 -3 0 6 -8 5 -18 7 -24 4 -5 -3 -6 -1 -2 6 4 6 12
9 17 6 5 -4 9 -1 9 5 0 7 7 5 16 -4 8 -9 20 -16 27 -16 6 0 3 6 -6 12 -13 10
-14 17 -6 28 9 13 10 12 5 -2 -3 -10 -1 -18 4 -18 6 0 10 7 10 15 0 8 5 15 11
15 6 0 9 -6 6 -13 -3 -7 3 -13 14 -13 12 0 15 4 9 11 -6 7 -2 11 12 12 11 1
31 12 44 24 13 12 24 18 24 12 0 -6 -6 -14 -13 -17 -6 -3 2 -4 20 -2 18 2 34
0 37 -5 2 -5 3 -4 2 3 -2 7 -8 13 -13 13 -6 0 -14 3 -18 6 -3 4 5 6 17 5 13 0
26 -5 30 -11 5 -6 12 -5 20 4 7 8 8 11 2 8 -6 -3 -11 1 -11 10 0 12 5 11 19
-7 10 -12 18 -17 18 -12 0 6 9 9 20 7 12 -2 18 0 15 6 -4 5 -11 7 -16 4 -5 -4
-9 -1 -9 4 0 6 16 11 35 11 19 0 35 5 35 11 0 5 -5 7 -11 3 -8 -4 -8 0 0 15 7
11 14 21 17 21 3 0 2 -4 -1 -10 -12 -20 7 -31 22 -13 8 10 12 13 9 7 -3 -7 1
-15 10 -18 8 -3 13 -2 10 3 -8 13 20 21 31 10 6 -6 10 -4 10 5 0 10 -8 13 -26
9 -14 -2 -23 -1 -19 2 10 11 71 17 65 7 -4 -5 0 -9 7 -9 7 0 13 6 13 13 0 7
-4 11 -8 8 -4 -2 -11 1 -15 8 -4 7 -4 10 1 6 4 -4 14 -3 21 3 8 7 14 6 20 -2
5 -8 3 -9 -6 -4 -9 5 -11 4 -6 -3 12 -20 29 -13 23 8 -3 11 -1 17 4 14 5 -3
12 2 15 11 6 14 8 14 20 -2 13 -17 15 -17 27 -1 8 10 16 17 18 15 2 -1 -3 4
-11 12 -13 11 -12 12 7 6 16 -4 22 -2 20 7 -2 7 -2 10 0 6 8 -14 25 -8 20 7
-5 11 -1 12 16 6 17 -7 27 -3 47 19 14 15 24 33 22 39 -2 6 5 11 17 11 11 0
23 4 26 10 3 5 0 7 -8 4 -8 -3 -17 -1 -21 4 -3 5 1 9 9 10 8 1 22 3 30 4 8 1
15 4 15 7 0 4 11 19 25 34 14 15 22 27 16 27 -5 0 -12 7 -15 16 -5 13 -4 14 7
6 18 -16 29 -4 17 19 -11 19 2 35 19 24 6 -3 6 6 1 24 -7 24 -5 29 6 24 8 -3
12 -9 9 -13 -7 -11 22 -6 32 5 4 4 3 5 -3 2 -7 -4 -17 0 -24 8 -11 13 -10 14
6 8 17 -6 17 -5 5 10 -12 15 -11 17 8 17 13 0 19 4 16 10 -4 6 -10 8 -15 5 -5
-3 -12 0 -16 6 -4 8 -3 9 4 5 7 -4 12 -2 12 5 0 7 8 22 18 33 15 18 15 19 0 8
-15 -12 -17 -11 -15 7 1 13 6 20 14 16 11 -3 11 0 2 16 -10 19 -9 20 10 10 17
-10 20 -9 15 4 -4 8 -10 15 -16 15 -5 0 -6 5 -3 10 4 6 11 7 17 4 7 -4 8 -2 4
4 -4 7 -4 18 1 25 10 16 12 58 2 51 -4 -2 -6 -14 -4 -25 4 -17 2 -19 -11 -9
-11 10 -12 16 -3 27 7 7 9 16 5 20 -3 3 2 15 11 26 17 19 17 19 -6 12 -21 -6
-22 -5 -10 8 8 8 17 13 21 11 10 -7 0 36 -12 51 -8 10 -8 15 1 21 8 4 9 3 5
-4 -5 -8 -1 -10 9 -5 13 4 14 8 4 14 -7 4 -14 17 -16 29 -2 12 1 19 5 16 4 -2
9 4 9 15 2 18 0 19 -15 7 -14 -11 -14 -9 2 16 13 21 15 28 4 24 -18 -7 -17 34
1 56 11 14 11 16 -5 17 -18 0 -18 1 1 9 11 5 14 9 7 9 -8 1 -10 6 -6 13 12 19
11 59 -1 54 -12 -4 -12 40 0 51 4 5 6 3 2 -2 -3 -6 -1 -17 5 -25 8 -12 9 -12
4 3 -3 10 0 17 7 17 8 0 7 3 -2 9 -8 5 -16 19 -18 31 -2 12 1 19 5 16 4 -2 9
4 9 15 2 18 0 19 -15 7 -14 -11 -14 -9 2 16 13 21 15 28 4 24 -18 -7 -17 34 1
56 11 14 11 16 -5 17 -18 0 -18 1 1 9 11 5 14 9 7 9 -8 1 -10 6 -6 13 12 19
11 59 -1 54 -12 -4 -12 40 0 51 4 5 6 3 2 -2 -3 -6 -1 -17 5 -25 8 -12 9 -12
4 3 -3 10 0 17 7 17 8 0 7 3 -2 9 -8 5 -16 19 -18 31 -2 12 1 19 5 16 4 -2 9
4 9 15 2 18 0 19 -15 7 -14 -11 -14 -9 2 16 13 21 15 28 4 24 -18 -7 -17 34 1
56 11 14 11 16 -5 17 -18 0 -18 1 1 9 11 5 14 9 7 9 -8 1 -10 6 -6 13 12 19
11 59 -1 54 -12 -4 -12 40 0 51 4 5 6 3 2 -2 -3 -6 -1 -17 5 -25 8 -12 9 -12
4 3 -3 10 0 17 7 17 8 0 7 3 -2 9 -8 5 -16 19 -18 31 -2 12 1 19 5 16 4 -2 9
4 9 15 2 18 0 19 -15 7 -14 -11 -14 -9 2 16 13 21 15 28 4 24 -18 -7 -17 34 1
56 11 14 11 16 -5 17 -18 0 -18 1 1 9 11 5 14 9 7 9 -8 1 -10 6 -6 13 12 19
11 59 -1 54 -12 -4 -12 40 0 51 4 5 6 3 2 -2 -3 -6 -1 -17 5 -25 8 -12 9 -12
4 3 -3 10 0 17 7 17 8 0 7 3 -2 9 -8 5 -16 19 -18 31 -2 12 1 19 5 16 4 -2 9
4 9 15 2 18 0 19 -15 7 -14 -11 -14 -9 2 16 13 21 15 28 4 24 -18 -7 -17 34 1
56 11 14 11 16 -5 17 -18 0 -18 1 1 9 11 5 14 9 7 9 -8 1 -10 6 -6 13 12 19
11 59 -1 54 -12 -4 -12 40 0 51 4 5 6 3 2 -2 -3 -6 -1 -17 5 -25 8 -12 9 -12
4 3 -3 10 0 17 7 17 8 0 7 3 -2 9 -8 5 -16 19 -18 31 -2 12 1 19 5 16 4 -2 9
4 9 15 2 18 0 19 -15 7 -14 -11 -14 -9 2 16 13 21 15 28 4 24 -18 -7 -17 34 1
56 11 14 11 16 -5 17 -18 0 -18 1 1 9 11 5 14 9 7 9 -8 1 -10 6 -6 13 12 19
11 59 -1 54 -12 -4 -12 40 0 51 4 5 6 3 2 -2 -3 -6 -1 -17 5 -25 8 -12 9 -12
4 3 -3 10 0 17 7 17 8 0 7 3 -2 9 -8 5 -16 19 -18 31 -2 12 1 19 5 16 4 -2 9
4 9 15 2 18 0 19 -15 7 -14 -11 -14 -9 2 16 13 21 15 28 4 24 -18 -7 -17 34 1
56 11 14 11 16 -5 17 -18 0 -18 1 1 9 11 5 14 9 7 9 -8 1 -10 6 -6 13 12 19
11 59 -1 54 -12 -4 -12 40 0 51 4 5 6 3 2 -2 -3 -6 -1 -17 5 -25 8 -12 9 -12
4 3 -3 10 0 17 7 17 8 0 7 3 -2 9 -8 5 -16 19 -18 31 -2 12 1 19 5 16 4 -2 9
4 9 15 2 18 0 19 -15 7 -14 -11 -14 -9 2 16 13 21 15 28 4 24 -18 -7 -17 34 1
56 11 14 11 16 -5 17 -18 0 -18 1 1 9 11 5 14 9 7 9 -8 1 -10 6 -6 13 12 19
11 59 -1 54 -12 -4 -12 40 0 51 4 5 6 3 2 -2 -3 -6 -1 -17 5 -25 8 -12 9 -12
4 3 -3 10 0 17 7 17 8 0 7 3 -2 9 -8 5 -16 19 -18 31 -2 12 1 19 5 16 4 -2 9
4 9 15 2 18 0 19 -15 7 -14 -11 -14 -9 2 16 13 21 15 28 4 24 -18 -7 -17 34 1
56 11 14 11 16 -5 17 -18 0 -18 1 1 9 11 5 14 9 7 9 -8 1 -10 6 -6 13 12 19
11 59 -1 54 -12 -4 -12 40 0 51 4 5 6 3 2 -2 -3 -6 -1 -17 5 -25 8 -12 9 -12
4 3 -3 10 0 17 7 17 8 0 7 3 -2 9 -8 5 -16 19 -18 31 -2 12 1 19 5 16 4 -2 9
4 9 15 2 18 0 19 -15 7 -14 -11 -14 -9 2 16 13 21 15 28 4 24 -18 -7 -17 34 1
56 11 14 11 16 -5 17 -18 0 -18 1 1 9 11 5 14 9 7 9 -8 1 -10 6 -6 13 12 19
11 59 -1 54 -12 -4 -12 40 0 51 4 5 6 3 2 -2 -3 -6 -1 -17 5 -25 8 -12 9 -12
4 3 -3 10 0 17 7 17 8 0 7 3 -2 9 -8 5 -16 19 -18 31 -2 12 1 19 5 16 4 -2 9
4 9 15 2 18 0 19 -15 7 -14 -11 -14 -9 2 16 13 21 15 28 4 24 -18 -7 -17 34 1
56 11 14 11 16 -5 17 -18 0 -18 1 1 9 11 5 14 9 7 9 -8 1 -10 6 -6 13 12 19
11 59 -1 54 -12 -4 -12 40 0 51 4 5 6 3 2 -2 -3 -6 -1 -17 5 -25 8 -12 9 -12
4 3 -3 10 0 17 7 17 8 0 7 3 -2 9 -8 5 -16 19 -18 31 -2 12 1 19 5 16 4 -2 9
4 9 15 2 17 -1 18 -13 8 -12 -10 -13 -9 -8 5 6 15 -180 16 -2500 16 l-2506 0
0 -2065z m2420 1920 c0 -2 -6 -5 -13 -8 -8 -3 -14 1 -14 8 0 7 6 11 14 8 7 -3
13 -6 13 -8z m75 -3 c-3 -3 -11 0 -18 7 -9 10 -8 11 6 5 10 -3 15 -9 12 -12z
m93 -13 c-3 -8 -7 -3 -11 10 -4 17 -3 21 5 13 5 -5 8 -16 6 -23z m136 9 c-4
-6 1 -8 15 -3 13 4 21 2 21 -5 0 -6 -4 -9 -9 -5 -5 3 -12 1 -15 -4 -4 -5 2 -8
11 -6 10 2 22 4 26 4 5 1 5 6 1 13 -4 7 -3 8 4 4 7 -4 12 -1 13 6 0 10 2 11 6
0 4 -10 8 -10 21 0 15 12 16 11 3 -4 -7 -10 -18 -15 -25 -12 -6 3 1 -5 15 -18
18 -15 25 -31 23 -45 -2 -13 0 -23 5 -23 5 0 8 10 7 22 0 11 6 23 14 25 12 4
12 3 1 -5 -9 -7 -10 -11 -2 -17 9 -5 9 -10 1 -20 -6 -7 -7 -21 -3 -31 7 -18 6
-18 -11 -1 -9 9 -20 17 -23 17 -4 0 -3 -3 0 -7 4 -3 1 -13 -6 -22 -11 -14 -10
-14 6 -2 20 15 23 2 5 -18 -11 -11 -10 -12 1 -6 9 5 12 3 9 -6 -3 -8 -11 -13
-17 -11 -7 1 -10 -2 -6 -8 3 -6 11 -7 17 -4 7 5 9 1 5 -9 -3 -10 -2 -17 3 -17
6 0 10 5 10 10 0 6 5 10 11 10 8 0 8 -4 0 -14 -6 -7 -8 -22 -5 -32 6 -18 6
-18 -8 0 -12 15 -17 16 -23 6 -6 -9 -1 -18 13 -28 19 -12 21 -49 2 -37 -5 3
-8 -4 -7 -15 1 -20 17 -29 17 -10 0 6 5 10 11 10 8 0 8 -4 -1 -15 -6 -8 -9
-19 -5 -26 5 -8 0 -7 -16 1 -13 7 -21 9 -17 5 4 -5 2 -15 -5 -24 -11 -14 -10
-14 6 -2 12 9 17 10 17 2 0 -7 4 -10 8 -7 4 2 8 -15 7 -39 0 -24 -4 -41 -8
-38 -5 3 -7 14 -4 24 3 11 2 17 -3 14 -4 -3 -10 -14 -13 -25 -3 -12 -1 -17 5
-14 5 3 9 0 7 -7 -3 -29 2 -38 19 -33 14 5 14 4 -2 -6 -14 -10 -20 -9 -28 1
-8 11 -9 11 -5 -1 2 -8 12 -14 21 -14 9 1 16 -2 16 -7 0 -5 -9 -9 -20 -9 -11
0 -20 -4 -20 -9 0 -4 11 -7 25 -6 14 2 23 -1 19 -6 -3 -5 -10 -6 -16 -3 -6 4
-8 -1 -3 -15 5 -16 3 -20 -9 -15 -9 3 -13 11 -9 17 4 6 1 7 -7 2 -10 -6 -10
-11 3 -20 9 -7 14 -14 11 -17 -3 -4 0 -9 7 -14 8 -4 10 -3 5 4 -5 8 -1 10 10
5 11 -4 13 -8 6 -11 -7 -2 -9 -9 -6 -14 4 -7 2 -8 -4 -4 -7 4 -12 1 -12 -8 0
-10 6 -13 18 -10 14 5 14 4 -2 -6 -14 -10 -20 -9 -28 1 -8 11 -9 11 -5 -1 2
-8 12 -14 21 -14 9 1 16 -2 16 -7 0 -5 -9 -9 -20 -9 -11 0 -20 -4 -20 -9 0 -4
11 -7 25 -6 14 2 23 -1 19 -6 -3 -5 -10 -6 -16 -3 -6 4 -8 -1 -3 -15 5 -16 3
-20 -9 -15 -9 3 -13 11 -9 17 4 6 1 7 -7 2 -10 -6 -10 -11 3 -20 9 -7 14 -14
11 -17 -3 -4 0 -9 7 -14 8 -4 10 -3 5 4 -5 8 -1 10 9 5 9 -3 13 -9 8 -12 -5
-3 -8 -18 -8 -33 1 -24 -1 -25 -20 -16 -11 6 -17 7 -13 3 4 -5 2 -15 -5 -24
-11 -14 -10 -14 6 -2 12 9 17 10 17 2 0 -7 5 -9 12 -5 6 4 8 3 4 -4 -3 -6 -2
-13 4 -17 7 -4 7 -13 0 -26 -6 -11 -8 -24 -5 -29 3 -6 -1 -7 -10 -4 -12 5 -13
9 -4 20 7 9 8 14 1 14 -13 0 -21 -21 -14 -37 2 -7 10 -13 17 -13 8 0 17 -5 21
-12 4 -7 3 -8 -4 -4 -7 4 -12 2 -12 -3 0 -6 -5 -11 -11 -11 -5 0 -7 6 -3 13 5
8 2 8 -9 -2 -18 -14 -23 -26 -8 -16 5 3 16 -2 25 -10 14 -14 14 -20 -1 -56 -8
-22 -13 -43 -9 -46 3 -4 6 1 6 9 0 9 8 22 17 29 10 9 14 9 10 2 -5 -8 3 -18
22 -27 25 -14 30 -14 41 -1 7 8 17 12 24 9 6 -3 2 2 -9 12 -17 14 -17 16 -2
11 9 -4 17 -2 17 3 0 5 9 12 20 15 11 4 17 11 14 17 -4 7 -2 8 5 4 6 -4 9 -11
6 -16 -3 -5 0 -12 6 -16 8 -5 9 -3 4 6 -6 9 -2 10 16 5 22 -7 23 -6 5 7 -17
13 -16 14 13 12 27 -2 29 0 21 16 -8 15 -6 17 10 13 11 -3 17 -10 13 -16 -3
-6 -1 -7 5 -3 7 4 12 15 12 24 0 10 3 13 8 7 11 -17 37 -11 36 8 -1 9 2 17 7
17 9 0 13 -16 10 -34 -1 -5 6 -3 16 4 28 22 29 24 11 17 -22 -8 -24 9 -2 17 8
3 12 11 8 17 -4 8 -3 9 5 5 6 -4 9 -11 6 -16 -3 -5 -1 -12 5 -15 6 -4 9 -1 8
6 -2 6 3 14 11 17 9 3 11 0 7 -9 -4 -8 2 -3 13 11 17 21 22 23 30 10 5 -8 7
-19 4 -25 -3 -5 8 3 25 19 17 16 29 33 25 39 -3 5 5 4 17 -3 20 -11 22 -10 17
3 -4 11 -2 14 9 10 8 -3 14 1 14 8 1 10 3 10 10 -2 10 -16 55 -19 55 -3 1 15
24 50 25 37 0 -19 -4 -28 -12 -26 -4 2 -5 -4 -1 -13 5 -15 7 -15 15 -1 4 9 17
14 28 12 12 -2 18 0 15 6 -4 5 -11 7 -16 4 -5 -4 -9 -1 -9 5 0 7 7 9 17 6 9
-4 21 -1 26 6 6 9 7 8 3 -4 -3 -10 -1 -18 4 -18 9 0 13 12 12 30 0 3 10 5 23
5 16 0 21 -4 17 -15 -4 -11 2 -9 18 5 13 11 20 15 17 9 -9 -16 105 -6 115 9 5
7 8 2 8 -13 1 -25 1 -25 10 -2 5 12 12 22 15 22 4 0 4 -4 1 -9 -3 -5 1 -11 8
-14 11 -4 14 0 11 16 -4 20 -3 21 9 5 15 -21 36 -24 36 -5 0 8 4 7 10 -3 8
-13 10 -13 10 0 0 10 5 7 16 -8 8 -12 24 -22 35 -22 19 0 19 -1 5 -16 -12 -12
-13 -20 -5 -35 5 -11 15 -16 21 -13 7 4 8 2 4 -5 -5 -7 -17 -9 -29 -5 -21 6
-21 6 -3 -8 15 -12 16 -17 6 -23 -9 -6 -11 -4 -5 5 5 9 4 11 -4 6 -6 -4 -9
-12 -5 -17 3 -5 9 -7 13 -5 4 3 13 0 21 -6 12 -8 12 -9 -2 -4 -10 3 -18 0 -18
-6 0 -6 -6 -5 -17 3 -17 13 -17 13 0 -7 20 -24 22 -38 5 -28 -10 6 -10 4 -2
-7 6 -8 10 -22 9 -31 -2 -11 2 -15 12 -11 13 5 13 3 2 -15 -7 -11 -17 -18 -23
-15 -5 3 -6 1 -2 -6 6 -9 11 -9 21 -1 10 8 15 8 21 -1 5 -8 3 -9 -6 -4 -10 6
-12 4 -7 -8 3 -9 1 -19 -5 -23 -7 -5 -8 -2 -3 6 5 9 4 11 -4 6 -6 -4 -9 -12
-5 -17 3 -5 0 -18 -7 -27 -11 -14 -9 -13 8 2 12 10 28 16 35 13 8 -3 6 -6 -6
-6 -12 -1 -16 -6 -13 -16 4 -8 1 -17 -5 -21 -7 -5 -8 -2 -3 6 5 9 4 11 -4 6
-6 -4 -9 -11 -6 -16 3 -4 0 -10 -7 -12 -7 -3 -5 -7 6 -11 12 -5 15 -3 10 6 -4
6 -3 9 1 4 5 -4 9 -16 10 -28 1 -13 -2 -16 -9 -9 -5 5 -15 10 -20 10 -6 0 -4
-5 4 -10 12 -8 13 -11 1 -19 -9 -6 -10 -11 -2 -15 6 -4 11 -12 11 -18 0 -6 -7
-5 -17 3 -17 13 -17 13 0 -7 20 -24 22 -38 5 -28 -10 6 -10 4 -2 -7 6 -8 10
-22 9 -31 -2 -11 2 -15 12 -11 13 5 13 3 2 -15 -7 -11 -17 -18 -23 -15 -5 3
-6 1 -2 -6 6 -9 11 -9 21 -1 10 8 15 8 21 -1 4 -7 3 -10 -2 -7 -5 3 -17 -3
-26 -14 -10 -10 -13 -18 -8 -18 6 0 10 -7 10 -16 0 -8 3 -13 8 -11 4 3 8 -6 8
-19 1 -13 -2 -24 -8 -24 -5 0 -7 4 -3 9 3 5 1 12 -4 15 -15 10 -25 -15 -10
-25 12 -8 12 -11 -1 -19 -12 -7 -10 -9 7 -7 12 0 19 6 15 12 -3 5 1 4 10 -2 8
-7 17 -11 20 -8 2 3 5 -2 5 -10 0 -10 -4 -12 -12 -5 -7 6 -11 2 -12 -13 -2
-17 0 -19 7 -7 5 8 10 11 10 6 0 -5 6 -4 13 1 26 21 53 10 48 -20 -1 -5 3 -5
9 -2 6 4 9 13 6 21 -3 9 0 14 7 12 6 -1 23 4 37 11 22 11 22 10 -4 -11 -22
-19 -26 -27 -16 -33 9 -6 11 -4 5 5 -6 10 -4 12 9 7 10 -4 15 -3 11 3 -10 15
47 21 57 5 5 -6 8 -4 8 4 0 11 4 9 15 -5 17 -23 20 -12 4 19 -11 20 -9 20 13
-3 13 -14 23 -28 21 -32 -7 -14 4 -9 17 8 11 12 11 15 0 12 -8 -2 -15 6 -17
17 -3 18 -2 18 5 2 4 -10 11 -18 15 -18 22 3 27 0 21 -11 -4 -6 -3 -8 4 -4 5
3 12 3 15 -1 2 -5 3 -3 1 4 -5 22 9 22 28 0 l19 -22 -11 23 c-6 12 -8 22 -5
22 3 0 8 0 13 0 4 0 7 -4 7 -9 0 -5 4 -13 9 -18 5 -4 6 -3 3 3 -4 6 1 19 11
27 16 15 18 15 19 -6 2 -17 0 -19 -7 -7 -5 8 -10 11 -10 5 0 -5 5 -17 10 -25
5 -8 10 -10 10 -3 0 6 11 10 25 9 13 -2 23 0 20 3 -2 4 6 13 18 21 20 12 21
11 9 -2 -10 -13 -10 -17 3 -22 9 -3 13 -2 10 3 -3 5 -1 12 5 16 5 3 10 2 10
-4 0 -6 7 -7 17 -4 10 4 14 2 9 -5 -3 -6 -1 -14 5 -18 7 -4 9 -3 6 3 -4 6 1
17 10 24 14 12 16 12 11 -2 -4 -11 0 -15 15 -13 12 1 26 3 30 3 5 1 5 6 2 11
-3 6 -1 10 4 10 15 0 14 -13 -1 -29 -11 -11 -10 -12 1 -6 11 6 13 4 8 -9 -5
-12 0 -19 16 -26 20 -8 9 -15 -16 -11 -5 1 -6 -3 -2 -9 3 -6 11 -7 17 -4 7 5
7 1 0 -12 -8 -14 -6 -21 6 -30 14 -10 12 -14 -14 -28 -16 -10 -22 -15 -13 -13
9 3 22 1 30 -4 11 -7 10 -9 -5 -9 -19 0 -19 0 -1 -13 11 -8 14 -16 8 -20 -6
-4 -9 -19 -6 -34 3 -26 3 -26 -6 -5 -6 12 -12 22 -15 22 -10 0 9 -46 23 -58
14 -11 14 -11 -1 -6 -23 8 -23 -5 -1 -21 13 -9 13 -14 3 -20 -9 -5 -11 -4 -6
3 4 7 3 12 -2 12 -16 0 -22 -41 -6 -47 8 -3 14 -9 14 -14 0 -6 -8 -5 -19 1
-17 9 -19 7 -16 -10 2 -11 -1 -22 -6 -25 -17 -11 2 -26 24 -20 12 4 18 3 12
-2 -21 -17 -34 -50 -23 -61 7 -7 3 -12 -12 -17 -20 -6 -21 -7 -3 -21 14 -11
14 -13 2 -8 -10 3 -19 -1 -23 -11 -4 -10 -2 -14 5 -9 8 4 9 -1 4 -16 -6 -17
-4 -21 6 -14 11 6 12 5 2 -8 -7 -8 -9 -19 -5 -23 4 -5 1 -5 -6 -1 -7 4 -10 11
-7 16 3 5 0 12 -7 16 -7 4 -10 4 -6 -1 4 -4 3 -14 -2 -20 -8 -9 -6 -14 6 -19
13 -5 14 -9 4 -21 -18 -21 -35 -19 -19 3 11 14 11 15 -1 5 -15 -13 -22 -56 -8
-47 4 3 5 -2 2 -10 -3 -9 -9 -14 -13 -12 -4 3 -8 -5 -8 -17 -2 -17 0 -18 7 -7
7 11 9 10 7 -7 0 -13 -7 -25 -15 -28 -8 -3 -10 0 -6 7 4 7 3 8 -5 4 -9 -6 -9
-11 0 -22 10 -12 9 -13 -7 -7 -16 6 -17 5 -6 -9 11 -14 10 -18 -7 -30 -14 -10
-17 -18 -10 -28 5 -8 9 -19 9 -25 -1 -5 -5 -2 -11 8 -16 27 -43 3 -28 -25 9
-16 7 -20 -10 -25 -16 -4 -19 -9 -11 -18 14 -17 -1 -27 -27 -19 -10 3 -14 2
-8 -3 20 -16 17 -36 -5 -30 -17 4 -19 3 -9 -9 8 -10 8 -14 0 -14 -6 0 -11 -5
-11 -11 0 -5 6 -7 13 -3 9 6 9 5 0 -8 -7 -8 -9 -19 -5 -24 4 -4 0 -3 -9 4 -19
14 -33 4 -19 -13 7 -9 5 -17 -7 -26 -9 -8 -14 -9 -10 -2 4 6 2 15 -4 19 -7 4
-10 3 -6 -2 7 -11 -37 -86 -46 -79 -4 3 -3 0 3 -7 11 -14 -5 -38 -27 -38 -8 0
-11 -5 -8 -10 3 -6 -1 -10 -9 -10 -10 0 -13 -6 -9 -16 4 -10 -1 -17 -16 -21
-11 -3 -21 -9 -21 -14 0 -5 8 -6 18 -2 11 3 9 0 -6 -11 -12 -10 -20 -21 -17
-26 3 -4 -3 -7 -12 -5 -25 4 -43 -13 -36 -32 4 -11 2 -14 -5 -9 -8 5 -10 1 -5
-10 5 -14 2 -16 -16 -11 -18 4 -20 3 -10 -9 9 -11 8 -14 -6 -14 -9 0 -19 -9
-22 -21 -4 -14 -12 -19 -24 -16 -16 4 -17 2 -9 -14 8 -15 7 -17 -4 -13 -10 4
-16 -2 -18 -18 -2 -13 -10 -23 -18 -24 -35 -2 -41 -5 -35 -14 3 -5 1 -18 -5
-27 -9 -14 -10 -14 -7 -2 3 9 -1 16 -9 16 -7 0 -11 -4 -7 -9 7 -13 -29 -45
-49 -42 -11 1 -15 -5 -13 -21 1 -16 -2 -22 -11 -18 -8 3 -11 10 -7 16 3 6 1 7
-6 3 -9 -6 -9 -11 1 -24 11 -13 11 -15 -2 -10 -13 5 -50 -21 -42 -29 4 -5 -8
-5 -16 0 -4 2 0 2 8 0 12 -3 12 -2 3 8 -20 20 -46 -7 -32 -33 10 -18 9 -19
-11 -8 -13 7 -20 8 -16 2 3 -6 2 -13 -4 -17 -6 -4 -7 -11 -4 -17 4 -7 2 -8 -4
-4 -6 3 -17 0 -24 -8 -9 -9 -20 -11 -34 -6 -14 6 -21 4 -21 -5 0 -7 7 -11 16
-8 14 4 14 3 1 -6 -11 -7 -20 -5 -34 7 -20 17 -20 17 -3 -10 16 -25 16 -27 0
-21 -12 5 -14 3 -8 -7 5 -9 4 -11 -4 -6 -6 4 -9 11 -6 16 3 5 1 11 -4 14 -5 4
-8 -4 -7 -16 2 -18 -3 -23 -21 -24 -12 -1 -20 2 -17 7 3 5 -2 6 -11 3 -10 -4
-12 -10 -6 -18 7 -8 3 -12 -14 -14 -13 -1 -39 -11 -56 -21 -18 -11 -36 -18
-41 -15 -4 3 -5 -1 -2 -9 3 -8 0 -18 -7 -23 -7 -4 -10 -3 -5 4 3 6 2 13 -4 17
-5 3 -11 1 -11 -4 -3 -26 -4 -30 -10 -36 -4 -3 -10 -1 -15 6 -5 8 -3 10 6 4 9
-6 11 -4 5 5 -6 10 -13 7 -27 -11 -14 -16 -18 -18 -14 -6 3 9 1 17 -3 17 -14
0 -20 -27 -9 -38 8 -8 4 -9 -12 -5 -15 4 -21 2 -16 -5 3 -6 2 -14 -4 -17 -6
-4 -10 -3 -9 2 4 20 -2 23 -17 8 -13 -13 -19 -13 -32 -3 -13 11 -15 10 -9 -4
4 -12 2 -15 -8 -11 -8 3 -12 9 -9 14 3 5 -2 6 -10 3 -14 -5 -13 -8 2 -23 10
-9 16 -15 13 -14 -2 2 -11 -3 -19 -10 -11 -8 -14 -8 -9 0 4 6 3 14 -2 17 -5 3
-12 -1 -15 -10 -5 -14 -9 -14 -23 -3 -14 12 -16 12 -8 0 6 -11 4 -13 -8 -8
-10 3 -17 2 -17 -3 0 -5 -7 -7 -15 -4 -8 4 -12 11 -8 17 3 6 1 7 -6 3 -6 -4
-9 -12 -5 -17 3 -6 -8 -7 -28 -4 -23 4 -29 2 -18 -4 8 -5 17 -8 21 -5 4 2 13
-4 20 -13 12 -15 12 -16 -1 -8 -25 15 -62 14 -56 -2 3 -8 1 -11 -4 -8 -6 3
-10 1 -10 -5 0 -6 -5 -8 -12 -4 -9 6 -9 9 0 12 7 2 12 11 11 20 0 11 -2 12 -6
5 -2 -7 -12 -13 -20 -13 -10 0 -13 -6 -8 -18 5 -13 3 -14 -6 -5 -8 8 -19 9
-36 2 -18 -7 -22 -6 -16 4 4 6 -6 4 -21 -7 -16 -10 -26 -13 -22 -8 3 6 2 14
-4 17 -6 4 -9 1 -8 -7 2 -7 -3 -12 -10 -10 -8 1 -11 -2 -7 -8 3 -5 14 -10 23
-11 11 -1 8 -4 -8 -9 -14 -4 -19 -8 -11 -9 11 -1 10 -5 -5 -16 -16 -13 -16
-15 -2 -13 9 2 17 0 17 -4 2 -22 0 -28 -10 -28 -5 0 -7 6 -3 12 4 7 3 9 -1 5
-11 -9 -16 -39 -6 -33 4 3 13 -4 19 -15 12 -19 11 -19 -10 -8 l-23 12 20 -23
c18 -21 18 -23 2 -17 -15 6 -16 4 -6 -14 9 -17 8 -23 -2 -30 -11 -7 -9 -9 6
-9 18 -1 19 -1 3 -11 -20 -11 -24 -29 -7 -29 5 0 7 5 3 12 -4 7 -3 8 4 4 8 -4
8 -15 2 -31 -5 -14 -7 -31 -4 -39 3 -8 0 -24 -6 -36 -7 -13 -8 -20 -3 -17 4 3
14 -1 21 -9 7 -8 9 -14 4 -14 -11 0 -9 -30 2 -49 7 -11 4 -11 -14 -1 l-23 12
23 -33 c13 -18 19 -29 12 -25 -19 11 -14 -5 6 -21 15 -13 15 -13 -5 -4 -16 8
-22 7 -27 -5 -3 -8 -2 -13 2 -11 4 3 13 -1 20 -9 7 -8 9 -14 4 -14 -11 0 -9
-30 2 -49 7 -11 4 -11 -14 -1 l-23 12 21 -29 c16 -22 17 -30 7 -30 -8 0 -12 4
-9 8 2 4 0 10 -5 13 -5 4 -8 -2 -6 -11 2 -10 4 -21 4 -25 1 -4 9 -5 19 -1 12
4 10 -1 -7 -15 -22 -20 -22 -22 -5 -22 18 -1 18 -1 2 -11 -10 -5 -18 -15 -18
-22 0 -7 4 -6 11 3 7 11 9 7 5 -17 -2 -17 -8 -38 -12 -45 -6 -11 -5 -11 8 0
14 11 16 10 11 -7 -3 -12 -9 -18 -14 -15 -5 3 -9 0 -9 -6 0 -6 -4 -9 -9 -6 -5
3 -12 -1 -15 -9 -4 -12 -2 -13 12 -6 12 6 23 6 33 -1 11 -8 11 -9 -3 -4 -10 3
-18 1 -18 -5 0 -6 -4 -7 -10 -4 -5 3 -10 1 -10 -6 0 -7 -6 -5 -13 6 -10 12
-16 14 -21 7 -9 -15 -26 -16 -26 -1 0 5 4 8 8 5 5 -3 9 1 9 9 0 22 -15 18 -22
-5 -6 -18 -8 -18 -21 -5 -17 17 -28 20 -19 5 3 -5 -1 -10 -10 -10 -9 0 -14 4
-11 8 2 4 -15 8 -38 8 -32 -1 -42 -4 -38 -14 3 -9 8 -10 15 -3 16 16 27 13 26
-6 0 -12 -2 -13 -6 -5 -4 9 -8 10 -18 2 -16 -13 -49 15 -39 32 4 7 2 8 -5 4
-6 -4 -9 -11 -6 -16 9 -15 -16 -23 -28 -10 -9 10 -9 11 2 5 10 -5 12 -4 7 4
-10 15 -29 3 -22 -15 3 -8 0 -11 -9 -8 -16 6 -16 25 0 36 5 4 0 6 -12 5 -16
-1 -19 -5 -12 -13 7 -8 6 -14 -1 -19 -5 -3 -10 -2 -10 3 0 6 -7 13 -16 16 -8
3 -12 2 -9 -4 3 -6 -1 -10 -10 -10 -9 0 -14 4 -11 9 6 10 -63 6 -72 -4 -4 -3
0 -10 8 -15 8 -6 10 -10 4 -10 -5 0 -15 5 -22 12 -7 7 -12 8 -12 4 0 -5 -7 -3
-15 4 -8 7 -12 17 -8 23 3 6 1 7 -5 3 -7 -4 -12 -15 -12 -24 -1 -16 -1 -16
-11 0 -5 9 -16 15 -24 12 -8 -4 -13 -9 -11 -13 3 -4 -4 -7 -14 -8 -11 -1 -23
3 -26 9 -4 6 -2 8 4 4 6 -3 13 -2 16 3 4 5 -2 8 -11 6 -10 -1 -17 -9 -17 -18
1 -9 -4 -13 -12 -10 -8 3 -11 9 -8 14 3 5 2 9 -3 10 -4 0 -18 2 -30 3 -19 2
-21 0 -11 -18 8 -17 8 -19 -3 -9 -10 10 -16 10 -27 0 -13 -10 -14 -9 -3 10 14
27 -3 32 -19 6 -9 -15 -11 -15 -7 -2 3 9 0 22 -6 29 -9 10 -9 11 1 6 6 -4 12
-2 12 3 0 6 -7 11 -15 11 -8 0 -15 4 -15 9 0 4 12 6 28 4 l27 -4 -30 16 c-23
12 -25 14 -8 11 21 -4 22 -2 9 16 -8 11 -12 27 -9 36 4 9 2 13 -4 9 -12 -8
-12 11 0 31 5 6 4 12 0 12 -5 0 -9 9 -10 20 -1 11 2 20 8 20 5 0 8 -3 8 -8 -3
-19 2 -32 13 -32 6 0 8 3 5 7 -4 3 -2 12 5 20 6 8 7 13 2 12 -21 -4 -26 2 -13
18 10 11 10 14 2 9 -8 -4 -13 -2 -13 4 0 6 -5 8 -12 4 -9 -6 -9 -3 0 9 8 9 11
21 7 27 -3 5 1 10 9 10 16 0 18 32 3 46 -3 4 -4 -3 -2 -15 2 -12 0 -19 -6 -16
-5 4 -7 11 -4 16 4 5 0 9 -7 10 -10 0 -10 2 1 6 11 5 11 7 0 15 -10 6 -7 7 9
3 13 -4 22 -2 22 4 0 6 -7 11 -15 11 -8 0 -15 5 -15 11 0 5 4 8 9 5 13 -8 0
37 -13 47 -6 5 -1 5 12 2 13 -4 22 -2 22 4 0 6 -7 11 -15 11 -8 0 -15 5 -15
11 0 5 4 7 10 4 11 -7 2 23 -12 42 -6 7 -5 14 3 18 8 6 7 10 -2 16 -11 7 -11
9 1 9 13 0 13 1 0 10 -8 5 -10 10 -5 10 6 0 11 9 12 20 1 13 -2 18 -10 13 -9
-5 -9 -3 -1 8 12 14 11 31 -1 60 -3 10 0 19 8 22 7 3 14 -1 14 -9 0 -7 -5 -11
-10 -7 -5 3 -5 -2 1 -13 5 -11 8 -27 7 -36 -2 -10 2 -21 7 -25 7 -3 8 -1 4 5
-4 7 -1 12 6 12 9 0 9 3 2 8 -6 4 -10 26 -9 49 1 23 -2 40 -7 37 -4 -3 -8 0
-8 6 0 6 -5 8 -12 4 -9 -6 -9 -3 0 9 8 9 10 22 6 28 -5 9 -2 10 10 6 9 -4 15
-3 11 2 -3 5 1 12 7 15 7 4 3 4 -9 2 -12 -2 -30 3 -40 11 -17 13 -16 13 4 4
16 -8 22 -7 26 4 4 10 1 12 -10 8 -11 -4 -14 -2 -9 5 4 7 1 12 -8 12 -9 0 -16
5 -16 10 0 6 -5 10 -11 10 -5 0 -8 -4 -5 -8 6 -10 -67 -8 -83 2 -6 4 -9 12 -6
17 4 5 1 9 -4 9 -6 0 -11 -7 -11 -15 0 -8 -4 -15 -10 -15 -5 0 -7 7 -4 15 4
10 0 15 -15 15 -12 0 -21 -5 -21 -12 0 -6 -3 -8 -6 -5 -4 4 -1 13 5 21 8 9 8
16 2 20 -5 4 -12 2 -16 -4 -9 -15 -28 -12 -19 3 4 6 4 9 -1 5 -4 -4 -20 -1
-36 8 -16 8 -32 14 -35 13 -4 0 -11 5 -16 13 -6 9 -8 5 -4 -12 3 -14 3 -19 0
-12 -3 6 -10 10 -14 7 -5 -3 -7 4 -5 16 3 16 1 18 -9 10 -17 -15 -59 -8 -64
10 -3 11 -1 11 7 -1 7 -9 11 -10 11 -3 0 16 -17 26 -25 13 -3 -5 -11 -10 -17
-10 -6 0 -6 6 2 15 7 9 10 18 6 22 -3 3 -6 0 -6 -7 0 -9 -5 -7 -16 6 -12 15
-15 15 -10 2 2 -9 -1 -19 -9 -22 -9 -3 -12 1 -10 14 2 11 -1 23 -7 26 -7 4 -8
2 -4 -4 4 -7 2 -12 -3 -12 -6 0 -11 4 -11 10 0 5 -6 9 -12 7 -7 -1 -12 4 -11
11 2 6 -4 12 -12 12 -9 0 -12 -6 -9 -15 4 -8 1 -15 -5 -15 -6 0 -10 3 -10 7 3
19 -3 47 -8 36 -2 -7 -9 -13 -14 -13 -6 0 -8 4 -5 9 3 5 -1 12 -10 15 -10 4
-13 2 -8 -6 4 -7 3 -8 -4 -4 -7 4 -12 2 -12 -5 0 -7 -3 -10 -6 -7 -3 4 -1 15
5 26 10 19 8 20 -14 16 -17 -3 -25 0 -25 10 0 9 -7 12 -19 9 -13 -3 -21 2 -26
16 -3 12 -13 21 -21 21 -13 0 -13 -2 0 -16 23 -23 20 -30 -4 -9 -13 12 -17 22
-10 29 6 8 2 12 -12 13 -12 1 -25 8 -31 15 -6 10 -7 8 -3 -4 3 -10 1 -20 -3
-23 -5 -3 -8 9 -7 26 l2 31 -18 -24 c-16 -20 -17 -20 -12 -3 4 11 11 25 15 31
5 6 3 11 -6 11 -8 0 -12 -4 -10 -8 3 -4 -2 -9 -10 -13 -8 -3 -17 0 -21 6 -4 7
-3 8 4 4 7 -4 12 -2 12 5 0 7 -8 9 -21 6 -15 -4 -19 -2 -15 9 3 8 2 14 -3 14
-5 0 -20 11 -34 25 -18 19 -27 22 -33 14 -5 -8 -3 -10 7 -4 8 5 11 4 6 -1 -13
-14 -22 -6 -22 19 0 12 -4 22 -10 22 -5 0 -16 4 -23 9 -7 4 -19 6 -26 3 -7 -3
-13 1 -13 9 0 7 5 11 11 8 6 -3 3 1 -6 9 -10 8 -15 16 -12 19 2 3 -2 8 -11 12
-9 3 -13 2 -10 -3 3 -5 0 -13 -6 -17 -7 -4 -9 -3 -5 4 3 6 2 13 -3 17 -6 3 -7
13 -4 23 6 14 4 15 -9 5 -18 -15 -29 -7 -20 15 5 15 3 15 -10 4 -13 -10 -18
-10 -24 -1 -4 8 -3 9 4 5 7 -4 12 -2 12 3 0 6 -5 11 -11 11 -5 0 -8 4 -4 9 3
6 -4 8 -15 6 -17 -3 -18 -1 -11 14 7 13 6 18 -4 18 -8 0 -12 -4 -9 -9 9 -15
-3 -8 -17 9 -10 11 -10 14 -1 9 6 -4 12 -2 12 3 0 6 -5 11 -11 11 -5 0 -7 5
-3 11 4 7 -1 7 -16 -1 -12 -6 -24 -9 -28 -6 -3 3 0 6 7 6 7 0 9 5 5 12 -5 7
-2 9 7 4 8 -4 6 -1 -3 7 -10 8 -15 16 -13 19 3 3 -5 4 -18 3 -17 -2 -24 2 -23
14 0 9 -5 15 -13 13 -12 -3 -12 -1 0 14 9 12 9 15 1 10 -7 -4 -12 -2 -12 6 0
9 -3 9 -10 -2 -8 -13 -10 -13 -10 2 0 9 3 18 8 21 4 2 1 2 -7 0 -9 -2 -11 2
-7 13 5 14 4 15 -8 5 -12 -10 -16 -8 -21 8 -3 12 -11 21 -17 21 -6 0 -6 6 2
15 11 13 10 14 -2 10 -8 -3 -21 1 -28 9 -7 9 -17 13 -24 9 -6 -4 -5 0 2 9 11
14 10 18 -4 26 -11 6 -15 17 -12 30 5 16 2 19 -11 14 -14 -5 -14 -3 -3 10 12
14 10 16 -10 10 -21 -5 -22 -4 -8 13 8 10 10 16 3 12 -6 -4 -19 0 -28 9 -12
13 -13 19 -4 30 10 12 9 13 -6 8 -15 -6 -16 -5 -5 17 12 21 12 23 -3 11 -13
-11 -16 -10 -22 7 -3 12 -4 25 0 31 4 6 -1 7 -11 3 -13 -5 -15 -2 -10 15 4 12
2 23 -5 28 -8 4 -9 3 -5 -4 4 -7 2 -12 -4 -12 -6 0 -10 8 -8 18 2 10 -2 16
-10 14 -8 -1 -11 2 -8 7 4 5 2 12 -4 16 -5 3 -10 12 -10 18 0 7 5 4 11 -5 5
-10 20 -23 32 -29 22 -11 22 -11 -1 11 -16 15 -21 28 -17 43 5 17 4 19 -4 7
-6 -8 -11 -10 -11 -4 0 7 -10 14 -22 18 -19 5 -21 8 -8 16 13 9 13 11 1 19
-13 9 -24 64 -11 56 3 -2 6 5 6 15 0 17 -2 18 -16 5 -15 -13 -17 -13 -17 0 0
8 4 12 9 9 8 -5 10 1 11 29 0 19 -14 47 -25 47 -6 0 -5 -6 2 -15 9 -10 9 -15
1 -15 -11 0 -15 13 -12 38 1 6 -3 12 -9 12 -6 0 -8 5 -5 10 3 6 1 10 -5 10 -6
0 -4 7 5 17 16 15 16 17 -3 27 -16 9 -17 13 -7 23 7 6 16 9 21 5 4 -4 4 -2 0
5 -4 7 -12 10 -19 7 -8 -3 -13 5 -14 18 -2 17 0 19 7 8 5 -8 11 -12 15 -9 3 3
-4 16 -15 29 -22 25 -28 42 -8 22 17 -17 27 -15 23 6 -1 9 -8 16 -14 14 -6 -1
-11 5 -11 14 0 8 4 13 9 9 5 -3 13 -1 16 5 4 6 1 9 -7 8 -14 -3 -14 5 -3 35 5
10 2 17 -5 17 -9 0 -9 4 1 17 10 11 10 14 1 9 -7 -4 -12 -2 -12 4 0 6 -4 9 -9
5 -5 -3 -13 0 -17 6 -5 8 -3 9 6 4 8 -5 11 -3 8 6 -3 8 -11 13 -17 11 -6 -1
-11 3 -11 8 0 6 7 10 16 8 11 -2 18 5 20 20 2 12 -1 22 -7 22 -5 0 -7 -4 -4
-10 4 -6 -1 -7 -11 -3 -11 4 -13 8 -6 11 7 2 9 9 5 15 -4 7 0 8 11 4 10 -4 15
-3 11 3 -3 6 -1 10 4 10 6 0 3 8 -7 18 -9 11 -21 17 -27 14 -5 -3 -5 1 2 8 10
11 15 11 28 0 13 -11 14 -10 9 4 -3 9 -11 16 -16 16 -6 0 -8 7 -4 15 6 17 -9
21 -17 5 -3 -6 -4 -5 -3 2 2 7 12 13 24 12 17 0 19 3 12 17 -6 9 -13 19 -17
21 -5 3 -2 3 5 2 16 -4 16 13 0 20 -7 3 -1 3 13 0 15 -3 30 -1 33 5 4 6 13 11
19 11 7 -1 -1 -12 -18 -27 -24 -21 -25 -23 -5 -11 14 8 37 18 52 21 14 4 34
10 45 14 16 6 16 5 4 -10 -7 -9 -18 -14 -24 -10 -6 3 -7 1 -3 -5 8 -13 46 6
46 22 0 6 7 1 15 -10 17 -22 20 -12 4 19 l-10 22 18 -20 c31 -36 50 -47 50
-30 0 7 -5 13 -11 12 -5 -1 -11 7 -13 18 -3 18 -2 18 5 2 4 -10 11 -18 15 -18
22 3 27 0 21 -11 -4 -6 -3 -8 4 -4 5 3 12 3 15 -1 2 -5 3 -3 1 4 -5 22 9 22
28 0 l19 -22 -10 22 c-11 21 2 43 16 29 4 -3 1 -6 -6 -6 -7 0 -9 -5 -6 -10 5
-8 12 -7 23 2 13 11 15 10 9 -4 -3 -10 -1 -20 5 -24 7 -5 8 -3 4 5 -10 15 25
11 37 -4 5 -6 7 -3 4 7 -9 26 4 29 25 5 19 -22 19 -22 3 13 l-16 35 20 -25
c18 -22 26 -21 22 3 -1 5 3 5 9 2 6 -4 9 -13 6 -21 -7 -18 11 -29 27 -16 17
15 89 13 81 -1 -4 -8 -2 -7 7 1 7 6 27 12 43 12 24 0 27 3 16 10 -13 8 -13 11
-1 22 12 11 13 10 6 -2 -5 -8 -5 -12 0 -8 4 4 9 24 11 45 2 25 0 33 -5 24 -7
-10 -9 -7 -8 12 1 14 5 23 9 21 4 -3 4 12 1 32 -5 30 -3 36 8 29 12 -7 12 -6
0 9 -16 19 -23 58 -10 50 4 -2 5 12 2 32 -5 30 -3 36 8 29 12 -7 12 -6 0 9
-15 18 -23 59 -11 51 8 -5 5 70 -4 84 -4 6 -2 11 5 11 8 0 7 5 -2 17 -8 10 -9
14 -2 10 9 -6 10 2 6 29 -5 30 -3 36 8 29 12 -7 12 -6 0 9 -17 20 -23 58 -8
49 5 -3 6 3 3 15 -16 50 -16 64 1 57 14 -5 14 -3 -2 15 -12 13 -14 20 -5 20
10 0 9 4 -1 17 -12 15 -12 16 2 11 13 -5 16 -2 12 13 -3 11 0 19 6 19 7 0 9
-6 6 -12 -4 -7 0 -5 8 5 8 9 17 17 20 17 4 0 4 -8 1 -17 -5 -15 -4 -15 4 -3 7
9 7 19 2 25 -6 8 -5 12 4 12 8 0 13 -9 11 -22 -2 -19 2 -22 29 -19 17 2 37 6
44 9 8 3 10 0 6 -6 -4 -7 0 -9 14 -5 11 4 23 3 26 -2 3 -5 15 -8 28 -6 13 1
27 3 31 3 5 1 5 6 1 12 -4 8 -1 8 12 1 23 -11 47 -5 38 10 -4 7 -2 8 5 4 8 -6
9 -12 2 -20 -8 -9 -7 -13 4 -13 8 0 15 4 15 8 0 13 29 18 36 7 4 -6 3 -8 -4
-4 -6 3 -13 2 -16 -3 -4 -5 2 -8 11 -6 10 2 18 4 18 5 0 7 66 7 70 0 9 -14
-15 -23 -29 -11 -9 8 -13 7 -13 -3 0 -9 10 -13 31 -11 38 4 68 -4 61 -15 -6
-10 15 -8 34 4 10 6 12 5 7 -2 -4 -7 -3 -12 3 -12 5 0 12 6 14 13 3 7 6 5 6
-5 1 -10 6 -18 12 -18 5 0 8 4 4 9 -3 5 0 13 6 17 8 4 9 3 5 -4 -4 -7 -3 -12
2 -12 5 0 12 -10 15 -22 4 -12 9 -19 13 -15 4 4 14 1 22 -6 13 -10 14 -9 3 10
-9 19 -9 22 3 17 8 -3 17 -15 20 -27 l6 -22 20 25 c18 23 19 23 14 4 -7 -27
10 -39 28 -20 11 12 17 10 38 -14 14 -15 36 -31 50 -34 19 -6 21 -5 10 3 -9 6
-10 11 -3 11 6 0 18 -7 27 -15 8 -8 22 -15 30 -15 9 0 16 -4 16 -9 0 -5 -8 -8
-17 -6 -10 1 -12 0 -5 -2 7 -3 9 -10 5 -16 -4 -7 1 -6 11 2 14 12 19 12 25 2
5 -7 11 -12 15 -12 18 3 24 -1 33 -21 8 -19 10 -20 16 -4 4 10 3 15 -3 11 -6
-3 -7 1 -4 10 7 17 14 15 18 -7 4 -29 17 -40 32 -27 12 10 13 9 7 -7 -6 -17
-5 -18 12 -4 10 8 16 10 13 5 -4 -6 -2 -17 3 -25 9 -13 10 -13 6 0 -2 8 5 20
16 26 17 10 18 12 3 17 -11 5 -15 3 -10 -5 4 -7 3 -8 -5 -4 -6 4 -9 12 -5 17
3 5 10 7 15 4 5 -4 9 -1 9 4 0 6 -5 11 -10 11 -7 0 -7 6 0 19 13 26 13 34 -2
25 -9 -5 -9 -3 1 9 14 18 36 13 25 -5 -5 -7 -2 -8 5 -4 9 6 9 12 -3 25 -9 10
-13 21 -9 26 5 4 1 6 -7 3 -11 -4 -16 0 -16 13 0 13 3 15 13 7 10 -8 10 -2 -1
23 -13 30 -13 36 2 53 9 11 12 16 6 13 -7 -4 -14 4 -17 20 -5 26 -4 27 10 8
14 -20 15 -20 11 0 -4 25 -20 45 -32 37 -5 -3 -6 0 -2 7 6 8 12 9 20 2 9 -8
13 -7 13 4 0 8 -4 15 -8 15 -4 0 -10 7 -13 16 -6 14 -4 15 9 4 13 -11 16 -11
13 0 -5 21 -22 39 -32 32 -5 -3 -6 0 -2 7 6 9 11 9 22 0 12 -10 15 -10 12 2
-2 7 -9 20 -15 27 -16 16 -16 29 -3 37 6 3 10 11 10 16 0 6 -3 8 -7 6 -5 -3
-8 6 -8 19 0 23 1 23 14 7 13 -17 13 -17 6 2 -16 44 -18 58 -7 51 7 -4 12 -2
12 3 0 6 -4 11 -10 11 -5 0 -7 7 -4 15 4 8 11 12 18 8 6 -3 5 0 -2 8 -11 12
-14 12 -21 0 -7 -10 -9 -7 -8 12 2 19 5 23 15 15 9 -8 8 -1 -2 23 -13 30 -13
36 2 53 9 11 12 16 6 13 -7 -4 -14 4 -17 20 -5 26 -4 27 10 8 14 -20 15 -20
11 0 -4 25 -20 45 -32 37 -5 -3 -6 0 -2 7 6 8 12 9 20 2 9 -8 13 -7 13 4 0 8
-4 15 -8 15 -4 0 -10 7 -13 16 -6 14 -4 15 9 4 13 -11 16 -11 13 0 -5 21 -22
39 -32 32 -5 -3 -6 0 -2 7 6 8 12 9 20 2 9 -8 13 -7 13 4 0 8 -4 15 -8 15 -4
0 -10 7 -13 16 -6 15 -4 15 11 3 16 -13 16 -12 -1 14 l-18 29 24 -7 c19 -5 20
-4 6 5 -11 7 -15 20 -13 40 2 17 1 29 -3 26 -4 -2 -7 6 -7 19 0 19 3 21 19 13
14 -8 17 -7 10 4 -14 22 -13 37 3 31 12 -5 12 -7 1 -14 -8 -5 -9 -9 -2 -9 6 0
17 7 24 15 7 8 16 12 21 9 5 -3 9 1 9 8 0 9 3 10 8 2 4 -6 15 -10 25 -8 9 1
15 -1 12 -6 -8 -13 20 -19 36 -8 11 8 11 9 -2 5 -9 -3 -16 1 -16 8 0 10 5 11
17 5 10 -5 21 -6 25 -2 5 4 5 2 2 -4 -11 -19 19 -24 44 -7 12 9 19 11 15 5 -4
-7 -1 -12 9 -12 11 0 15 5 12 14 -4 10 -1 13 8 9 8 -3 13 -9 10 -13 -3 -5 -1
-11 5 -15 5 -3 10 2 10 12 1 17 1 17 11 1 5 -10 16 -15 24 -11 9 3 23 -1 33
-8 15 -12 16 -12 4 2 -10 14 -10 18 5 23 10 4 20 1 25 -9 5 -8 14 -13 19 -9 5
3 18 0 27 -8 15 -11 16 -11 4 3 -10 14 -10 18 4 23 10 4 21 0 29 -10 11 -16
13 -16 23 2 9 14 12 15 13 4 1 -8 1 -19 0 -25 -1 -5 11 4 26 20 22 25 26 26
21 9 -5 -21 -2 -22 56 -15 4 1 6 8 3 15 -4 10 -1 13 8 9 8 -3 12 -9 9 -14 -3
-5 2 -9 10 -9 10 0 13 7 11 20 -2 12 0 18 6 15 5 -4 6 -11 3 -17z m-467 -10
c-3 -8 -6 -5 -6 6 -1 11 2 17 5 13 3 -3 4 -12 1 -19z m120 0 c-3 -8 -6 -5 -6
6 -1 11 2 17 5 13 3 -3 4 -12 1 -19z m484 -21 c-7 -7 -17 -7 -33 1 -21 11 -21
11 6 5 22 -4 27 -3 21 7 -6 9 -4 11 4 5 9 -5 10 -10 2 -18z m-2 -135 c7 -13 6
-19 -2 -19 -7 0 -13 9 -13 19 0 10 1 18 3 18 1 0 7 -8 12 -18z m-1669 -666 c0
-3 -4 -8 -10 -11 -5 -3 -10 -1 -10 4 0 6 5 11 10 11 6 0 10 -2 10 -4z m2735
-14 c-3 -3 -11 0 -18 7 -9 10 -8 11 6 5 10 -3 15 -9 12 -12z m-470 -32 c3 -6
-1 -7 -9 -4 -18 7 -21 14 -7 14 6 0 13 -4 16 -10z m497 -7 c-6 -2 -9 -10 -6
-15 4 -7 2 -8 -5 -4 -13 9 -5 26 12 25 9 0 8 -2 -1 -6z m-2365 -35 c-3 -8 -6
-5 -6 6 -1 11 2 17 5 13 3 -3 4 -12 1 -19z m1734 13 c5 8 9 9 9 3 0 -6 -6 -16
-13 -22 -10 -8 -13 -6 -14 11 0 12 1 16 4 8 5 -11 7 -11 14 0z m629 -101 c0
-5 -2 -10 -4 -10 -3 0 -8 5 -11 10 -3 6 -1 10 4 10 6 0 11 -4 11 -10z m-2010
-42 c0 -5 -9 -4 -20 2 -11 6 -20 12 -20 14 0 2 9 2 20 -1 11 -3 20 -9 20 -15z
m2013 9 c3 -8 0 -14 -7 -14 -7 0 -13 6 -13 14 0 7 4 13 8 13 4 0 9 -6 12 -13z
m-1966 -49 c-3 -8 -6 -5 -6 6 -1 11 2 17 5 13 3 -3 4 -12 1 -19z m943 8 c0 -3
-4 -8 -10 -11 -5 -3 -10 -1 -10 4 0 6 5 11 10 11 6 0 10 -2 10 -4z m1016 -205
c-4 -5 -1 -12 4 -14 6 -3 5 -4 -2 -3 -15 3 -23 26 -8 26 6 0 9 -4 6 -9z m4
-41 c0 -5 -2 -10 -4 -10 -3 0 -8 5 -11 10 -3 6 -1 10 4 10 6 0 11 -4 11 -10z
m3 -33 c3 -8 0 -14 -7 -14 -7 0 -13 6 -13 14 0 7 4 13 8 13 4 0 9 -6 12 -13z
m-3 -107 c0 -5 -2 -10 -4 -10 -3 0 -8 5 -11 10 -3 6 -1 10 4 10 6 0 11 -4 11
-10z m-3350 -100 c-8 -5 -19 -10 -25 -10 -5 0 -3 5 5 10 8 5 20 10 25 10 6 0
3 -5 -5 -10z m104 -14 c-3 -9 -10 -13 -15 -10 -5 3 -3 11 4 19 15 16 19 13 11
-9z m3576 14 c-8 -5 -19 -10 -25 -10 -5 0 -3 5 5 10 8 5 20 10 25 10 6 0 3 -5
-5 -10z m150 6 c0 -2 -11 -11 -25 -20 -14 -9 -25 -13 -25 -8 0 5 10 14 23 20
27 13 27 13 27 8z m90 -6 c-8 -5 -19 -10 -25 -10 -5 0 -3 5 5 10 8 5 20 10 25
10 6 0 3 -5 -5 -10z m41 -3 c-6 -8 -7 -18 -3 -22 4 -5 1 -5 -6 -1 -10 6 -10
11 -1 22 6 8 14 14 16 14 3 0 0 -6 -6 -13z m-3671 -6 c0 -5 -7 -11 -14 -14
-10 -4 -13 -1 -9 9 6 15 23 19 23 5z m40 0 c0 -5 -7 -12 -16 -15 -14 -5 -15
-4 -4 9 14 17 20 19 20 6z m-110 -16 c-7 -8 -17 -15 -22 -15 -6 0 -5 7 2 15 7
8 17 15 22 15 6 0 5 -7 -2 -15z m3790 -35 c0 -5 -5 -10 -11 -10 -5 0 -7 5 -4
10 3 6 8 10 11 10 2 0 4 -4 4 -10z m-4296 -108 c3 -5 -1 -9 -9 -9 -8 0 -12 4
-9 9 3 4 7 8 9 8 2 0 6 -4 9 -8z m20 -170 c7 -12 -12 -38 -21 -28 -4 5 -2 11
6 14 11 4 11 6 0 13 -9 6 -10 9 -2 9 6 0 14 -4 17 -8z m4267 -89 c7 -10 9 -15
5 -11 -5 4 -16 2 -25 -5 -14 -10 -14 -10 -4 4 7 9 10 19 6 22 -3 4 -4 7 -1 7
3 0 12 -8 19 -17z m-58 -278 c-3 -9 -8 -14 -10 -11 -3 3 -2 9 2 15 9 16 15 13
8 -4z m-103 -195 c0 -5 -5 -10 -11 -10 -5 0 -7 5 -4 10 3 6 8 10 11 10 2 0 4
-4 4 -10z m-154 -268 c-18 -16 -18 -16 -6 6 6 13 14 21 18 18 3 -4 -2 -14 -12
-24z m-152 -203 c-3 -5 -10 -7 -15 -3 -5 3 -7 10 -3 15 3 5 10 7 15 3 5 -3 7
-10 3 -15z m-639 -519 c4 -6 -1 -7 -11 -3 -13 5 -15 3 -9 -7 5 -9 4 -11 -4 -6
-6 4 -9 12 -6 17 8 12 22 12 30 -1z m-45 -24 c0 -2 -7 -7 -16 -10 -8 -3 -12
-2 -9 4 6 10 25 14 25 6z m1561 -23 c13 -16 12 -17 -3 -4 -17 13 -22 21 -14
21 2 0 10 -8 17 -17z m-3211 -119 c0 -2 -11 2 -25 8 -14 6 -25 15 -25 20 0 5
11 1 25 -8 14 -9 25 -18 25 -20z m3203 -39 c-3 -9 -8 -14 -10 -11 -3 3 -2 9 2
15 9 16 15 13 8 -4z m-123 -345 c-14 -26 -27 -33 -36 -19 -4 7 -3 9 3 6 11 -7
28 20 24 36 -1 5 3 6 9 2 7 -4 7 -12 0 -25z m-2025 -20 c3 -6 -1 -7 -9 -4 -18
7 -21 14 -7 14 6 0 13 -4 16 -10z m1906 -106 c-11 -15 -21 -25 -22 -23 -6 34
-6 37 7 32 8 -3 17 2 20 11 4 9 9 15 11 12 3 -3 -4 -17 -16 -32z m-4601 4 c0
-6 -6 -5 -15 2 -8 7 -15 14 -15 16 0 2 7 1 15 -2 8 -4 15 -11 15 -16z m17 -10
c-3 -8 -6 -5 -6 6 -1 11 2 17 5 13 3 -3 4 -12 1 -19z m4473 -69 c0 -5 -4 -9
-8 -9 -5 0 -9 7 -9 15 0 8 4 12 9 9 4 -3 8 -9 8 -15z m-4253 -44 c0 -8 -4 -12
-9 -9 -5 3 -6 10 -3 15 9 13 12 11 12 -6z m100 -42 c0 -8 -6 -9 -19 -2 -10 5
-18 11 -18 12 0 2 8 3 18 3 10 0 19 -6 19 -13z m477 -154 c-6 -11 -24 -2 -24
11 0 5 7 7 15 4 8 -4 12 -10 9 -15z m47 -32 c-10 -9 -11 -8 -5 6 3 10 9 15 12
12 3 -3 0 -11 -7 -18z m89 -15 c0 -12 -3 -12 -15 -2 -8 7 -15 13 -15 15 0 1 7
2 15 2 8 0 15 -7 15 -15z m1304 -38 c3 -8 2 -12 -4 -9 -6 3 -10 10 -10 16 0
14 7 11 14 -7z m240 0 c3 -8 2 -12 -4 -9 -6 3 -10 10 -10 16 0 14 7 11 14 -7z
m-197 -10 c-3 -3 -12 -4 -19 -1 -8 3 -5 6 6 6 11 1 17 -2 13 -5z m240 0 c-3
-3 -12 -4 -19 -1 -8 3 -5 6 6 6 11 1 17 -2 13 -5z m-1390 -19 c0 -8 -4 -12 -9
-9 -5 3 -6 10 -3 15 9 13 12 11 12 -6z m437 -153 c3 -5 -1 -9 -9 -9 -8 0 -12
4 -9 9 3 4 7 8 9 8 2 0 6 -4 9 -8z m281 -72 c-3 -5 -12 -10 -18 -10 -7 0 -6 4
3 10 19 12 23 12 15 0z m5 -30 c0 -5 -2 -10 -4 -10 -3 0 -8 5 -11 10 -3 6 -1
10 4 10 6 0 11 -4 11 -10z"/>
<path d="M2130 4948 c0 -4 4 -8 9 -8 6 0 12 4 15 8 3 5 -1 9 -9 9 -8 0 -15 -4
-15 -9z"/>
<path d="M2368 4783 c16 -29 15 -41 -1 -19 -10 14 -18 15 -39 7 -21 -8 -26 -7
-22 3 3 8 -5 12 -25 12 -27 0 -29 -2 -19 -20 10 -19 10 -20 -6 -7 -9 8 -19 11
-23 7 -3 -3 -2 -6 4 -6 6 0 14 -7 17 -15 4 -11 0 -15 -11 -13 -9 2 -18 -4 -20
-12 -4 -13 -3 -13 6 0 8 11 11 12 11 2 0 -7 6 -10 13 -7 6 4 4 0 -5 -8 -22
-17 -23 -31 -3 -23 8 3 15 1 15 -4 0 -6 -4 -11 -10 -11 -5 -1 -14 -2 -19 -3
-22 -3 -20 -14 2 -12 22 3 24 1 14 -15 -7 -11 -16 -19 -21 -19 -5 0 1 -8 12
-19 28 -23 28 -35 2 -21 -25 13 -26 7 -3 -16 26 -25 27 -55 3 -61 l-20 -5 20
-18 c26 -22 26 -34 0 -20 -25 13 -26 7 -3 -16 26 -25 27 -55 3 -61 l-20 -5 20
-18 c26 -22 26 -34 0 -20 -25 13 -26 7 -3 -16 26 -25 27 -55 2 -61 -16 -4 -18
-8 -7 -14 11 -7 10 -11 -2 -19 -11 -7 -11 -10 -2 -10 7 0 11 -4 8 -9 -3 -5 0
-11 8 -14 16 -6 15 -63 -2 -94 -15 -27 -15 -33 -1 -33 5 0 8 4 4 9 -3 5 -2 12
3 15 12 7 8 -45 -6 -71 -15 -27 -15 -33 -1 -33 5 0 8 4 4 9 -3 5 -2 12 3 15
12 7 8 -45 -6 -71 -15 -27 -15 -33 -1 -33 5 0 8 4 4 9 -3 5 -2 12 3 15 10 6 9
-51 -1 -60 -12 -12 -8 -26 5 -18 7 4 8 3 4 -5 -4 -6 -11 -9 -16 -6 -5 3 -12 1
-15 -5 -4 -6 -1 -9 6 -8 6 2 14 -3 16 -10 3 -8 -2 -10 -14 -6 -17 5 -17 5 0
-6 21 -13 23 -34 3 -27 -10 4 -13 1 -9 -8 3 -8 10 -12 16 -8 6 3 7 1 3 -5 -4
-7 -2 -12 3 -12 6 0 11 -5 11 -10 0 -7 -6 -7 -19 0 -14 7 -22 7 -27 -2 -4 -6
-3 -8 3 -5 13 8 36 -18 40 -46 2 -17 1 -19 -6 -7 -5 8 -7 18 -5 22 3 4 -2 5
-11 1 -12 -4 -13 -8 -5 -13 7 -4 9 -16 6 -28 -5 -14 -1 -24 11 -31 15 -8 16
-12 4 -23 -12 -11 -13 -10 -6 2 5 8 4 11 0 7 -11 -9 -16 -39 -6 -33 4 3 12 -4
19 -15 7 -10 9 -19 5 -18 -21 3 -43 -2 -43 -11 0 -5 8 -6 17 -3 15 6 16 5 3
-9 -13 -14 -16 -14 -23 -2 -5 8 -14 11 -20 7 -7 -4 -6 1 2 10 8 10 11 20 7 24
-3 3 -6 1 -6 -5 0 -7 -7 -12 -15 -12 -8 0 -15 -6 -15 -12 0 -7 -5 -5 -11 5 -5
9 -8 21 -4 26 3 5 0 13 -6 17 -8 4 -9 3 -5 -4 4 -7 2 -12 -3 -12 -6 0 -11 6
-11 14 0 8 -5 18 -12 22 -7 4 -8 3 -4 -4 4 -7 2 -12 -3 -12 -6 0 -11 5 -11 11
0 6 -9 9 -20 6 -15 -4 -24 2 -35 23 -8 15 -11 31 -7 35 4 5 2 5 -5 1 -7 -4 -9
-14 -6 -24 5 -15 4 -15 -9 1 -7 10 -20 17 -28 15 -16 -4 -21 23 -5 34 6 5 6 8
-2 9 -7 1 -19 2 -25 3 -7 1 -19 -3 -27 -8 -11 -8 -13 -8 -7 2 5 9 3 13 -5 11
-33 -4 -42 1 -30 15 9 11 9 16 0 22 -7 4 -10 3 -7 -2 3 -5 0 -14 -7 -21 -10
-10 -14 -9 -19 3 -4 9 -13 14 -21 10 -8 -3 -15 -1 -15 4 0 14 24 12 38 -2 7
-7 12 -8 12 -4 0 20 -34 34 -55 23 -18 -9 -18 -8 -7 5 10 13 10 18 1 24 -8 4
-9 3 -5 -4 4 -7 1 -12 -9 -12 -10 0 -13 -5 -9 -12 4 -7 3 -8 -5 -4 -9 6 -9 11
0 22 9 11 9 14 0 14 -7 0 -10 4 -7 8 2 4 -4 8 -14 8 -10 0 -16 -4 -14 -8 3 -4
0 -8 -5 -8 -6 0 -11 6 -11 14 0 8 -7 17 -16 20 -15 6 -15 4 -3 -11 11 -14 12
-15 0 -9 -8 5 -17 3 -23 -5 -6 -10 -7 -7 -3 9 6 21 4 23 -15 17 -14 -4 -20 -3
-16 3 9 15 -35 38 -71 37 -36 0 -39 4 -20 25 10 12 9 12 -5 2 -13 -10 -17 -10
-20 0 -3 8 -7 6 -11 -6 -4 -10 -3 -15 3 -11 6 4 7 -1 3 -11 -5 -15 -7 -15 -15
0 -5 9 -14 13 -20 10 -7 -4 -8 -2 -4 5 4 6 12 8 18 5 7 -4 8 -2 4 4 -7 11 -31
7 -52 -9 -6 -5 -11 -3 -11 6 0 8 4 12 8 10 3 -3 13 3 20 13 13 15 12 16 -3 3
-10 -7 -18 -10 -18 -6 0 4 -8 1 -17 -6 -11 -10 -14 -10 -9 -1 4 7 1 12 -9 12
-10 0 -13 5 -9 12 4 6 3 8 -4 4 -6 -3 -22 -2 -36 4 -26 9 -38 -3 -13 -14 6 -2
2 -4 -10 -2 -12 1 -26 6 -30 11 -5 4 -3 5 3 2 6 -3 11 1 11 10 0 12 -5 11 -19
-7 -10 -12 -18 -17 -18 -11 0 6 -7 11 -16 11 -9 0 -12 5 -8 13 5 8 3 8 -9 -2
-9 -7 -14 -18 -10 -24 3 -6 1 -7 -6 -3 -6 4 -9 11 -6 15 2 5 -6 9 -20 9 -14 0
-22 -4 -19 -9 3 -5 -2 -6 -10 -3 -8 3 -13 14 -11 25 2 11 0 17 -6 13 -6 -3 -8
-9 -5 -12 3 -3 -1 -14 -11 -24 -9 -10 -11 -18 -6 -18 6 0 13 -16 15 -35 3 -26
1 -32 -8 -24 -9 8 -11 5 -7 -10 3 -13 10 -18 21 -14 10 4 6 -3 -8 -15 -14 -12
-19 -21 -12 -22 6 0 12 5 12 11 0 5 5 7 11 3 6 -4 7 -9 2 -13 -5 -3 -9 -17 -8
-31 0 -14 -4 -28 -9 -31 -11 -9 -16 -70 -5 -63 7 4 13 -10 7 -18 -1 -2 4 -14
11 -28 11 -23 11 -24 -3 -6 -9 10 -13 22 -11 26 2 4 -2 7 -10 7 -11 0 -11 -4
1 -22 18 -27 25 -109 9 -95 -8 7 -12 5 -12 -4 0 -9 10 -13 28 -12 24 2 26 0
16 -13 -9 -11 -9 -13 0 -8 6 4 16 0 21 -9 8 -15 10 -15 15 0 8 20 33 11 40
-15 5 -18 8 -19 28 -9 19 11 21 10 16 -4 -4 -9 -3 -15 1 -15 4 1 9 0 12 -1 19
-7 39 -7 34 1 -3 5 -1 9 5 9 5 0 13 -9 16 -21 5 -15 10 -18 18 -10 17 17 31
13 17 -4 -7 -9 -10 -18 -6 -22 3 -3 6 -2 6 4 0 5 7 10 15 10 8 0 15 -5 15 -11
0 -6 5 -4 10 4 9 13 10 13 11 0 1 -8 1 -19 0 -23 -1 -5 2 -6 7 -3 4 3 21 -3
37 -14 15 -10 34 -16 41 -13 6 2 15 -5 19 -16 5 -17 10 -19 26 -11 15 9 21 7
26 -7 12 -32 40 -56 48 -42 5 7 4 10 -2 6 -6 -4 -13 0 -17 8 -3 8 0 17 6 21 6
4 8 3 5 -3 -4 -6 0 -13 8 -17 8 -3 12 -12 9 -19 -3 -10 2 -14 18 -13 34 3 51
-13 36 -32 -10 -13 -10 -14 0 -8 6 4 12 3 12 -2 0 -5 11 -8 24 -7 18 2 23 -1
19 -11 -3 -8 0 -14 6 -14 6 0 11 -5 11 -11 0 -5 -6 -7 -12 -3 -8 4 -10 3 -5
-2 9 -9 13 -10 45 -13 15 -1 15 -3 2 -11 -13 -8 -12 -10 4 -10 12 0 16 -5 13
-14 -4 -11 -1 -13 10 -9 11 4 14 2 9 -5 -4 -7 -1 -12 9 -12 10 0 13 5 9 12 -4
7 -3 8 4 4 9 -5 9 -13 2 -26 -9 -16 -7 -18 11 -15 17 4 19 2 8 -11 -10 -12 -9
-13 4 -8 12 4 20 -2 27 -21 5 -14 14 -23 20 -20 6 4 7 -1 3 -11 -4 -12 -3 -15
5 -10 7 4 12 2 12 -4 0 -6 5 -8 12 -4 7 4 8 3 4 -5 -4 -6 -13 -9 -19 -5 -7 3
-2 -3 10 -13 15 -12 21 -26 18 -41 -2 -13 0 -20 6 -17 5 4 6 12 2 18 -5 8 -2
8 9 0 8 -7 17 -11 20 -8 2 3 5 -2 5 -10 0 -8 -3 -12 -7 -10 -3 2 -6 -5 -6 -15
0 -15 4 -16 19 -8 17 9 17 7 6 -14 -11 -21 -11 -22 5 -9 9 8 16 10 15 5 -5
-26 2 -45 14 -38 8 5 8 2 -2 -9 -9 -11 -10 -17 -2 -17 15 0 14 -30 -1 -30 -7
0 -5 -5 5 -11 9 -5 23 -7 30 -3 9 5 9 4 0 -6 -13 -14 -7 -40 9 -40 6 0 4 8 -3
18 -13 15 -12 16 4 3 12 -9 14 -17 7 -26 -6 -8 -4 -19 7 -35 9 -13 11 -20 5
-16 -7 4 -12 1 -12 -9 0 -12 6 -15 23 -10 15 4 18 3 8 -3 -9 -7 -10 -11 -2
-17 9 -5 9 -10 0 -21 -7 -9 -8 -14 -3 -13 23 4 26 -2 8 -16 -19 -14 -19 -14 2
-11 15 3 20 -1 20 -19 0 -13 -3 -22 -7 -19 -4 2 -6 -3 -5 -12 1 -8 9 -20 17
-25 11 -7 10 -9 -6 -9 -12 0 -16 -3 -9 -8 6 -4 11 -19 11 -34 2 -52 3 -55 26
-67 20 -11 20 -11 -8 -6 -22 4 -26 3 -15 -4 12 -8 12 -13 2 -23 -6 -6 -12 -19
-12 -27 0 -10 5 -7 13 8 6 14 19 26 27 28 13 4 13 3 0 -6 -13 -10 -13 -12 0
-22 12 -9 12 -10 -4 -5 -14 5 -17 3 -11 -11 4 -10 8 -36 9 -58 0 -22 5 -43 11
-47 6 -5 4 -8 -5 -8 -11 0 -12 -2 -2 -8 7 -5 14 -18 17 -31 2 -12 0 -19 -5
-16 -5 3 -7 -8 -5 -25 2 -16 -1 -33 -6 -36 -6 -3 -8 -13 -5 -21 3 -8 1 -11 -4
-8 -7 4 -9 -3 -6 -19 5 -28 -8 -36 -18 -10 -4 10 -2 13 6 8 7 -4 8 -3 4 5 -4
6 -12 9 -17 5 -5 -3 -6 -10 -3 -16 5 -8 1 -9 -10 -5 -9 4 -15 3 -12 -2 7 -11
-14 -20 -32 -14 -6 3 -9 10 -5 16 3 7 -3 4 -14 -6 -14 -12 -23 -15 -28 -7 -4
6 -24 9 -48 6 -23 -3 -37 -2 -32 2 6 4 10 14 11 23 1 11 -6 14 -27 11 -18 -3
-26 -9 -22 -16 3 -6 2 -7 -3 -3 -5 5 -9 15 -9 23 0 7 -4 13 -10 11 -5 -1 -9
-5 -7 -10 1 -4 -2 -7 -8 -7 -5 0 -10 4 -10 9 0 5 -7 12 -16 15 -8 3 -12 2 -9
-3 3 -5 1 -12 -3 -15 -11 -6 -53 40 -45 48 4 3 -4 6 -17 6 -12 0 -28 7 -35 16
-6 9 -22 17 -36 18 -13 1 -23 7 -21 14 1 7 -2 12 -8 12 -5 0 -10 -4 -10 -10 0
-18 -22 -10 -27 10 -3 11 -9 20 -14 20 -5 0 -6 -7 -3 -15 4 -8 1 -15 -5 -15
-6 0 -10 3 -10 8 1 4 1 16 0 27 -1 16 -3 17 -10 6 -7 -11 -10 -9 -13 10 -2 19
-8 23 -27 21 -23 -2 -61 29 -61 52 0 6 -5 4 -11 -4 -9 -12 -10 -11 -6 6 6 29
-37 51 -62 32 -13 -10 -14 -10 -3 2 17 19 15 30 -4 30 -10 0 -14 6 -11 14 4
11 1 13 -10 9 -11 -4 -14 -2 -9 5 10 16 -6 15 -23 0 -10 -9 -12 -9 -7 -1 3 6
2 14 -3 18 -6 3 -7 13 -4 23 6 15 5 16 -12 2 -11 -9 -16 -10 -11 -2 4 7 2 12
-5 12 -8 0 -8 4 -1 13 11 13 -9 52 -21 40 -4 -3 -7 -1 -7 6 0 7 -4 9 -10 6 -5
-3 -11 -1 -11 4 -5 39 -27 71 -44 65 -8 -4 -15 -2 -15 4 0 6 6 13 13 15 6 3 3
6 -8 7 -11 0 -29 7 -39 15 -17 13 -17 17 -5 32 12 14 12 15 0 9 -9 -6 -12 -5
-9 5 5 14 -14 39 -28 39 -5 0 -3 -5 4 -12 7 -7 12 -17 12 -22 0 -6 -5 -3 -11
7 -6 10 -16 14 -22 10 -7 -3 -3 4 7 16 20 22 20 22 0 15 -17 -7 -17 -6 -5 9
11 14 11 18 -2 23 -9 3 -20 3 -25 0 -4 -3 -6 8 -4 25 2 16 0 29 -4 28 -21 -4
-35 2 -29 11 4 6 11 8 17 4 5 -3 3 7 -6 24 -8 16 -13 32 -9 35 3 4 -4 4 -17 2
-19 -4 -20 -2 -8 12 11 14 11 16 -3 11 -12 -5 -16 2 -18 31 -5 67 -7 76 -16
79 -6 1 -10 -2 -10 -7 0 -5 -3 -13 -7 -17 -9 -8 -2 31 8 49 6 9 4 9 -8 -1 -14
-12 -16 -10 -11 10 4 18 3 20 -6 8 -7 -9 -11 -10 -11 -3 0 6 5 15 11 18 7 5 5
13 -6 25 -12 14 -13 20 -4 26 8 4 10 3 5 -4 -4 -7 -3 -12 3 -12 5 0 9 9 8 20
-1 13 -6 19 -15 15 -7 -3 -10 0 -7 6 4 5 1 18 -6 27 -11 14 -11 15 1 5 21 -19
35 -15 18 5 -9 9 -14 22 -11 28 2 6 -4 17 -14 25 -16 13 -17 12 -4 -4 18 -23
7 -34 -14 -14 -9 9 -16 19 -15 22 0 3 -2 5 -5 5 -3 0 -8 0 -12 0 -3 0 2 -9 12
-20 10 -11 13 -20 7 -20 -7 0 -12 5 -12 11 0 6 -7 9 -14 6 -10 -4 -13 -1 -10
7 3 8 0 17 -7 22 -8 4 -10 3 -5 -4 4 -7 3 -12 -3 -12 -6 0 -9 -6 -7 -12 1 -7
1 -10 -1 -5 -3 4 -11 7 -19 7 -8 0 -14 4 -14 8 0 5 -7 9 -15 9 -11 0 -12 -4
-3 -14 8 -11 7 -12 -6 -7 -9 3 -16 1 -16 -5 0 -6 -5 -11 -11 -11 -5 0 -8 4 -5
8 2 4 1 14 -5 22 -5 9 -9 10 -9 4 0 -7 -7 -15 -16 -18 -15 -6 -15 -4 -3 11 12
15 12 16 -3 10 -10 -3 -20 -2 -24 4 -4 7 -10 7 -18 0 -6 -6 -21 -10 -31 -10
-11 1 -44 -4 -74 -9 l-54 -10 24 20 24 19 -32 -15 c-37 -19 -47 -20 -38 -6 8
14 -16 8 -32 -7 -18 -16 -16 -28 1 -14 10 8 16 9 21 1 4 -6 1 -9 -7 -8 -7 2
-12 -3 -10 -10 2 -10 -2 -10 -17 -2 -13 7 -22 7 -26 0 -6 -10 1 -14 18 -11 5
1 5 -4 1 -11 -4 -6 -8 -22 -9 -34 0 -18 2 -20 12 -12 11 9 11 14 1 27 -12 14
-11 14 5 2 12 -9 14 -17 7 -26 -6 -8 -6 -15 2 -23 8 -8 5 -10 -13 -6 -20 4
-20 2 6 -11 23 -12 25 -15 8 -11 -13 2 -26 -1 -30 -6 -3 -7 -1 -8 5 -4 7 4 12
1 12 -8 0 -9 4 -16 9 -16 5 0 11 -7 15 -15 4 -12 2 -13 -13 -6 -13 7 -18 6
-18 -4 0 -8 4 -12 9 -9 4 3 8 1 8 -5 0 -6 8 -8 18 -5 13 5 14 4 3 -4 -8 -6
-19 -9 -25 -8 -6 2 -8 1 -3 -1 4 -3 4 -10 1 -15 -4 -7 -2 -8 4 -4 7 4 12 1 12
-8 0 -9 9 -25 20 -36 11 -11 15 -20 9 -20 -6 0 -18 8 -27 18 -10 10 -13 12 -8
4 7 -9 5 -17 -5 -23 -11 -8 -10 -9 5 -7 10 2 21 -3 24 -11 3 -8 0 -11 -6 -7
-6 3 -14 2 -17 -4 -4 -6 -1 -9 7 -8 7 2 12 -3 10 -10 -1 -8 2 -11 8 -7 6 3 8
10 5 15 -3 5 -1 11 3 14 16 10 8 -34 -8 -45 -13 -9 -13 -10 2 -6 18 6 32 -30
22 -56 -3 -9 6 -19 26 -27 25 -10 29 -15 17 -22 -9 -5 -13 -16 -10 -28 3 -11
9 -17 14 -14 5 3 9 -6 9 -20 0 -19 4 -24 20 -21 24 5 25 2 3 -16 -14 -12 -16
-12 -8 0 6 10 4 12 -4 7 -9 -6 -8 -13 6 -28 10 -11 17 -23 15 -27 -5 -13 29
-42 41 -35 6 5 5 -1 -3 -11 -11 -14 -11 -17 -1 -11 10 7 12 4 7 -12 -5 -14 -1
-25 14 -35 11 -7 17 -17 13 -20 -6 -6 11 -11 30 -8 4 0 7 -6 7 -15 0 -9 -5
-12 -12 -8 -7 4 -10 4 -6 -1 4 -4 18 -13 30 -20 15 -7 22 -19 21 -33 -2 -16 1
-20 15 -15 14 6 15 4 5 -8 -8 -9 -9 -20 -3 -29 7 -11 10 -12 10 -2 0 7 5 10
10 7 6 -4 8 -11 5 -16 -3 -5 1 -6 10 -3 11 4 14 2 10 -9 -4 -8 5 -27 21 -43
14 -16 21 -22 15 -12 -9 12 -9 18 0 24 8 4 9 3 5 -5 -4 -6 -1 -14 8 -17 8 -3
12 -12 9 -19 -2 -8 6 -25 20 -39 14 -14 22 -28 18 -33 -3 -4 3 -1 13 7 13 10
17 10 12 2 -4 -7 -2 -12 4 -12 7 0 10 -6 7 -14 -4 -10 0 -12 16 -8 20 5 21 4
7 -14 -8 -10 -11 -16 -6 -12 4 4 18 -3 30 -16 11 -12 15 -15 8 -6 -10 14 -9
17 3 17 8 0 12 -4 9 -8 -2 -4 1 -11 7 -14 5 -4 8 -13 5 -21 -3 -9 0 -11 11 -7
9 4 14 2 11 -3 -3 -5 1 -16 10 -24 14 -13 15 -12 9 5 -7 19 -6 19 6 3 8 -10
18 -14 23 -10 4 4 2 -2 -6 -13 -8 -11 -10 -17 -6 -13 5 4 15 0 23 -10 8 -9 12
-12 9 -6 -3 7 2 15 11 18 10 4 14 4 10 0 -4 -4 -1 -14 6 -22 10 -13 9 -14 -2
-7 -9 5 -12 4 -7 -3 3 -5 3 -12 -1 -15 -5 -2 -1 -2 7 0 31 9 35 7 34 -12 -1
-20 7 -24 57 -28 9 -1 16 -7 16 -14 0 -9 -6 -9 -21 -2 -20 10 -21 10 -2 -5 11
-9 26 -16 34 -16 8 0 10 -5 6 -12 -5 -9 -2 -8 9 1 10 8 20 11 24 7 3 -3 1 -6
-5 -6 -7 0 -12 -5 -12 -11 0 -5 5 -7 10 -4 6 3 10 1 10 -6 0 -8 5 -7 17 2 11
10 14 10 9 2 -4 -8 -2 -13 4 -13 6 0 8 -4 5 -10 -3 -5 1 -10 10 -10 10 0 13 5
9 13 -5 8 -2 8 9 -2 9 -7 17 -20 17 -28 0 -8 5 -11 12 -7 7 5 9 2 5 -9 -4 -11
-2 -14 8 -10 8 3 12 9 9 14 -3 5 6 4 20 -2 14 -7 23 -16 19 -22 -3 -5 -9 -3
-14 4 -7 12 -10 12 -21 0 -8 -9 -9 -12 -1 -7 6 3 16 -2 22 -11 6 -10 11 -12
11 -5 0 6 5 12 11 12 6 0 9 -6 6 -14 -8 -21 3 -27 27 -14 11 6 18 7 14 3 -11
-12 20 -37 34 -28 24 14 38 11 53 -10 9 -12 18 -21 20 -19 12 6 25 1 25 -9 0
-8 -4 -8 -14 0 -11 9 -16 9 -22 0 -4 -7 -3 -9 4 -5 6 3 15 -2 21 -11 8 -13 10
-14 11 -4 0 12 3 12 12 3 7 -7 21 -12 33 -12 11 0 30 -7 41 -15 12 -8 24 -11
28 -7 4 3 11 1 15 -6 4 -8 17 -15 27 -16 10 -2 18 -10 16 -17 -2 -8 5 -6 19 6
18 16 21 17 16 4 -4 -13 -1 -16 16 -12 16 3 18 2 9 -5 -9 -6 -2 -9 22 -8 19 1
32 4 30 8 -2 4 1 10 7 14 8 5 9 3 4 -6 -6 -10 -4 -12 8 -7 10 3 17 2 17 -3 0
-6 -6 -10 -12 -10 -9 0 -8 -3 2 -9 19 -13 30 -4 24 17 -5 14 -4 14 4 3 12 -17
42 -24 42 -10 0 5 5 9 12 9 6 0 8 -3 5 -7 -4 -3 -1 -13 6 -22 11 -14 10 -14
-5 -2 -12 9 -18 10 -18 2 0 -6 3 -11 8 -12 40 -5 60 -4 56 3 -3 4 -1 8 5 8 5
0 12 -6 14 -12 3 -7 6 -4 6 7 1 16 3 17 10 5 6 -8 7 -19 3 -25 -3 -5 1 -4 10
3 9 7 29 15 45 18 20 3 24 2 13 -5 -8 -5 -18 -7 -24 -4 -5 3 -6 1 -2 -5 3 -6
15 -9 26 -7 11 2 20 1 21 -3 0 -4 2 -17 5 -29 2 -13 -1 -23 -7 -23 -5 0 -7 5
-3 12 4 7 3 8 -5 4 -9 -6 -9 -11 0 -22 6 -8 9 -14 5 -14 -3 0 -1 -11 4 -24 5
-15 5 -27 -3 -35 -8 -8 -8 -11 1 -11 7 0 12 -5 12 -11 0 -5 -4 -7 -10 -4 -16
10 -12 -7 5 -19 11 -8 12 -15 4 -26 -9 -13 -10 -12 -5 2 3 10 2 18 -3 18 -5 0
-11 -11 -13 -24 -3 -15 -1 -23 6 -20 13 5 14 -34 3 -53 -4 -6 -1 -14 5 -16 10
-4 10 -6 1 -6 -18 -1 -16 -21 2 -35 11 -8 12 -15 4 -26 -9 -13 -10 -12 -5 2 3
10 2 18 -3 18 -5 0 -11 -11 -13 -24 -3 -15 -1 -23 6 -20 13 5 14 -35 2 -54 -4
-7 -2 -12 6 -12 8 0 9 -3 3 -8 -14 -9 -17 -52 -4 -52 5 0 9 -5 9 -11 0 -5 -4
-8 -9 -4 -5 3 -13 0 -17 -6 -5 -8 -3 -9 6 -4 10 6 12 4 7 -9 -6 -14 -3 -17 9
-12 14 5 15 4 5 -8 -6 -7 -9 -22 -5 -32 5 -16 4 -16 -5 -4 -9 13 -11 13 -11
-2 0 -10 4 -18 9 -18 5 0 11 -9 14 -19 3 -14 1 -18 -9 -14 -8 3 -11 10 -7 16
4 6 1 7 -6 2 -9 -5 -9 -11 -3 -17 6 -6 8 -17 5 -26 -4 -9 -2 -13 4 -9 7 4 10
0 9 -9 -1 -8 -9 -20 -17 -25 -11 -7 -10 -9 6 -9 11 0 16 -4 10 -8 -11 -8 -15
-63 -4 -56 4 2 9 -1 11 -8 3 -8 24 -11 63 -9 55 2 58 1 44 -15 -13 -17 -13
-17 13 0 16 11 46 17 80 18 29 0 56 5 60 11 6 9 8 9 8 0 0 -9 7 -10 26 -3 16
7 23 7 19 0 -7 -12 15 -13 33 -1 8 5 11 18 7 37 -5 26 -4 26 4 6 6 -12 18 -21
28 -21 17 1 17 2 0 6 -9 2 -15 9 -11 14 3 5 10 6 16 3 7 -5 8 -2 3 7 -13 20
-13 49 -1 49 7 0 8 3 1 8 -12 8 -13 27 -2 38 4 4 7 12 7 18 0 6 -5 4 -10 -4
-8 -12 -10 -12 -10 -1 0 11 -3 11 -17 1 -10 -7 -6 -1 10 13 28 27 36 44 15 30
-19 -11 -39 -13 -32 -2 3 5 8 7 12 5 4 -2 14 3 22 12 13 14 12 15 -3 9 -9 -3
-18 -2 -18 3 -2 14 -5 23 -14 43 -4 10 -5 21 -1 24 3 4 6 -1 6 -9 0 -16 28
-33 38 -23 3 3 1 5 -5 5 -6 0 -14 7 -17 16 -6 15 -4 15 11 3 15 -12 16 -12 8
1 -5 8 -9 25 -10 37 0 12 -3 25 -7 29 -4 4 0 13 10 21 9 8 12 12 5 9 -8 -4
-10 8 -8 39 1 24 -2 42 -6 39 -5 -3 -10 0 -10 5 -2 15 -4 23 -14 44 -4 10 -5
21 -1 24 3 4 6 -1 6 -9 0 -16 28 -33 38 -23 3 3 1 5 -5 5 -6 0 -14 7 -17 16
-6 15 -4 15 11 3 15 -12 16 -12 8 1 -13 21 -13 50 -1 50 7 0 8 3 1 8 -13 8
-13 22 -1 40 4 7 5 16 2 19 -3 4 -6 0 -6 -8 0 -12 -2 -11 -11 1 -9 12 -10 11
-4 -5 5 -17 4 -18 -7 -7 -11 12 -9 17 10 29 12 9 22 21 22 27 0 6 -4 4 -10 -4
-5 -8 -12 -12 -15 -8 -3 3 1 13 10 22 9 9 12 16 7 16 -5 0 -12 -3 -16 -7 -10
-11 -37 -12 -30 -2 3 5 10 7 15 4 13 -9 11 9 -3 24 -11 11 -9 11 11 1 13 -6
21 -7 17 -2 -3 6 -3 12 1 15 5 2 3 2 -4 1 -7 -2 -10 3 -6 11 3 8 10 12 17 8 7
-4 7 -1 -1 9 -7 8 -10 18 -6 22 4 4 0 4 -9 1 -9 -4 -18 -3 -21 2 -8 13 37 11
46 -1 4 -6 7 -1 5 13 -2 15 3 26 12 28 12 4 12 3 1 -5 -27 -19 18 -23 92 -8
24 6 42 4 51 -3 10 -9 15 -8 20 4 3 9 2 13 -4 10 -5 -3 -17 -2 -26 3 -12 6 -8
9 15 9 17 0 31 -4 31 -8 0 -10 28 -5 40 7 7 7 6 11 -4 11 -8 0 -13 -4 -10 -9
8 -13 -3 -9 -15 6 -10 12 -9 14 6 11 10 -1 24 3 32 9 11 8 13 8 8 0 -4 -7 2
-11 18 -11 14 0 22 3 19 8 -3 5 2 6 10 3 9 -3 13 -11 9 -17 -4 -6 -1 -7 6 -3
7 5 10 14 8 20 -3 7 1 13 9 13 9 0 13 -6 9 -15 -4 -12 -3 -13 10 -2 8 7 15 9
15 5 0 -4 7 -2 15 5 9 7 14 19 11 26 -3 8 -2 13 2 13 4 -1 9 -1 12 1 28 10 57
8 66 -5 11 -14 12 -14 18 0 3 9 13 15 22 13 9 -2 19 4 21 12 4 12 3 12 -5 2
-7 -11 -10 -11 -15 3 -4 9 -3 13 2 10 5 -3 12 -1 16 5 9 14 25 12 21 -2 -1 -7
-1 -10 1 -5 3 4 10 4 15 1 6 -4 8 -2 4 4 -3 6 3 13 14 17 12 4 17 11 13 18 -4
7 2 5 12 -3 17 -14 18 -13 12 3 -5 13 -3 16 6 10 20 -12 34 -12 34 2 0 7 -7
11 -16 8 -11 -3 -10 0 3 7 15 10 20 9 27 -1 7 -11 9 -11 9 -1 0 7 8 12 18 10
22 -3 57 22 57 42 0 8 6 14 13 13 6 -2 17 -4 24 -5 6 -2 18 9 25 24 8 16 19
28 26 28 8 0 8 -3 -1 -12 -7 -7 -12 -17 -12 -22 0 -6 8 1 17 14 10 14 17 28
16 31 -1 4 12 5 30 3 21 -3 27 -1 18 5 -8 5 -11 16 -7 26 5 13 13 15 33 10 23
-5 25 -4 14 9 -10 12 -9 16 7 25 13 7 22 7 31 -2 10 -9 11 -8 5 8 -7 18 -6 19
11 5 17 -14 18 -14 7 6 -10 19 -9 21 16 17 15 -1 21 0 15 3 -7 3 -13 10 -13
15 0 6 8 6 19 -1 17 -8 19 -7 16 15 -2 22 0 23 13 13 13 -11 15 -10 9 5 -5 12
-3 16 5 11 7 -5 9 -2 5 8 -4 12 0 15 19 13 13 -1 24 2 24 7 0 5 4 7 9 3 5 -3
13 0 17 6 4 7 3 9 -3 6 -6 -4 -13 0 -16 8 -4 9 -1 12 8 9 15 -6 38 29 27 41
-4 5 -1 5 6 1 7 -4 9 -13 5 -19 -5 -8 -2 -8 9 0 8 7 19 9 24 5 5 -4 0 3 -10
16 -11 12 -17 22 -15 23 2 0 12 2 22 4 10 2 15 -1 11 -8 -3 -7 1 -4 9 5 8 10
17 15 20 12 3 -3 4 5 3 19 -2 20 1 23 21 21 14 -1 22 0 19 3 -3 4 1 14 9 23 8
9 16 28 17 43 1 14 6 23 10 21 5 -3 11 2 14 10 3 9 10 13 16 10 5 -3 8 2 6 12
-2 11 6 23 19 29 13 7 20 15 15 20 -4 4 1 5 10 2 15 -5 16 -2 7 21 l-10 26 22
-19 c12 -11 19 -14 15 -7 -7 12 24 65 54 90 13 11 11 11 -8 2 -13 -7 -26 -10
-28 -7 -3 2 10 12 28 20 18 9 27 17 19 17 -9 0 -11 6 -6 18 4 9 8 22 8 28 0 6
8 9 18 7 9 -3 20 1 25 8 5 9 2 11 -12 6 -18 -7 -18 -7 0 7 10 8 15 19 12 24
-3 6 1 12 9 16 14 5 55 63 55 78 0 3 -8 9 -17 11 -17 4 -17 5 0 6 10 0 15 6
12 11 -3 6 -1 10 5 10 6 0 8 5 5 10 -4 6 -12 7 -18 3 -7 -4 -6 1 2 10 11 14
16 15 29 5 13 -12 14 -10 3 11 -10 18 -10 22 -1 16 8 -5 11 -3 8 6 -3 8 0 23
6 34 6 11 11 36 12 55 3 65 3 67 14 50 6 -9 10 -10 10 -3 0 7 -8 17 -17 23
-17 11 -17 11 -1 6 20 -6 34 10 16 17 -7 3 -2 6 12 6 17 1 21 4 12 10 -14 9
-13 32 3 43 6 5 5 8 -2 8 -7 0 -13 5 -13 11 0 5 4 8 8 5 5 -3 9 1 9 9 0 8 -4
15 -9 15 -4 0 -8 5 -8 11 0 5 6 7 13 3 7 -5 6 0 -3 11 -9 11 -10 16 -2 11 13
-8 16 2 12 42 -1 12 3 22 9 22 5 0 -3 13 -19 28 -25 26 -67 41 -54 20 7 -11
-3 -10 -29 3 l-22 12 20 -23 20 -23 -27 18 c-22 13 -28 14 -28 4 0 -11 -2 -11
-9 1 -6 8 -7 18 -5 22 3 4 -2 5 -11 2 -12 -5 -13 -9 -4 -20 7 -8 9 -17 5 -21
-3 -3 -6 0 -6 7 0 9 -6 7 -21 -6 -13 -12 -19 -14 -17 -5 2 7 -3 16 -11 19 -9
3 -11 0 -6 -8 6 -9 4 -11 -6 -5 -7 5 -20 10 -29 11 -8 1 -24 5 -34 9 -15 6
-17 5 -11 -5 5 -8 4 -11 -3 -6 -5 3 -13 0 -15 -6 -4 -10 -6 -9 -6 1 -1 11 -6
10 -23 -5 -12 -10 -18 -14 -15 -7 10 17 -13 28 -25 12 -8 -12 -9 -11 -5 1 2 8
11 14 20 14 9 -1 18 4 21 12 4 10 -1 11 -17 6 -28 -9 -48 -9 -66 2 -8 5 -12 5
-9 0 3 -5 -3 -17 -13 -26 -15 -14 -18 -14 -23 -2 -4 10 -2 12 6 8 7 -4 8 -3 4
5 -12 19 -27 2 -22 -25 3 -13 1 -22 -3 -19 -5 2 -14 -2 -21 -10 -7 -8 -17 -12
-24 -8 -6 3 -3 -3 8 -15 10 -12 23 -19 29 -15 6 3 7 1 3 -5 -4 -6 -14 -8 -24
-5 -15 6 -16 5 -2 -12 14 -17 13 -18 -4 -11 -20 7 -20 7 0 -15 19 -22 19 -22
-2 -11 -19 10 -20 8 -16 -20 3 -18 1 -28 -5 -25 -5 3 -10 -3 -10 -14 -2 -18 1
-19 15 -8 9 7 5 0 -11 -15 -23 -23 -29 -46 -11 -46 3 0 3 4 -1 9 -3 5 0 13 7
17 7 4 10 4 6 -1 -4 -4 -3 -14 3 -21 8 -9 4 -12 -15 -10 -17 2 -23 -1 -19 -10
3 -8 10 -11 16 -7 6 4 7 1 3 -6 -5 -7 -14 -10 -20 -8 -7 3 -19 1 -27 -4 -10
-6 -10 -9 -1 -9 6 0 12 -8 12 -18 0 -10 6 -24 13 -31 6 -8 0 -6 -15 4 l-27 17
5 -28 c3 -15 7 -31 9 -34 2 -4 -2 -7 -9 -7 -9 0 -12 7 -8 16 5 14 4 14 -10 1
-15 -14 -14 -16 4 -26 18 -10 18 -12 4 -17 -10 -4 -15 -3 -12 1 3 5 -1 9 -8 9
-8 0 -12 -7 -8 -15 4 -11 1 -13 -8 -7 -9 6 -11 4 -5 -5 4 -7 2 -16 -6 -22 -11
-8 -10 -9 4 -4 9 3 17 1 17 -4 0 -6 -9 -10 -19 -10 -22 0 -37 -33 -25 -52 5
-9 2 -8 -9 1 -16 13 -17 12 -7 -13 7 -19 7 -25 -1 -21 -6 4 -13 -3 -16 -15 -4
-16 -8 -18 -14 -9 -4 8 -11 10 -15 6 -4 -3 -1 -14 6 -22 7 -9 9 -15 4 -14 -22
4 -44 -2 -44 -12 0 -5 4 -8 8 -5 4 2 14 1 21 -3 9 -6 4 -9 -13 -8 -28 0 -82
-48 -65 -58 5 -4 14 5 21 19 6 14 15 26 20 26 10 0 -27 -56 -44 -66 -7 -4 -8
-3 -4 4 4 7 2 12 -5 12 -6 0 -9 -8 -6 -19 3 -14 1 -18 -10 -14 -8 3 -13 0 -11
-8 2 -9 -5 -14 -19 -13 -13 1 -20 -2 -18 -6 3 -4 -2 -13 -10 -20 -8 -7 -13
-16 -10 -20 3 -4 -2 -14 -11 -21 -13 -10 -17 -10 -25 2 -7 10 -8 7 -5 -12 3
-21 0 -25 -17 -25 -13 1 -22 -5 -22 -14 0 -8 -6 -19 -13 -23 -7 -5 -10 -13 -6
-19 4 -6 -3 -5 -16 2 -18 10 -21 9 -15 -1 6 -9 2 -11 -13 -7 -12 4 -20 3 -17
-2 6 -10 -43 -42 -54 -35 -5 3 -8 -6 -7 -19 2 -17 -1 -23 -10 -19 -8 3 -11 10
-7 16 3 6 1 7 -6 3 -9 -6 -9 -11 1 -24 8 -10 8 -13 1 -9 -6 4 -14 1 -16 -5 -4
-10 -6 -10 -6 0 -1 8 -7 6 -19 -5 -11 -10 -17 -21 -15 -25 2 -5 -7 -4 -20 1
-17 7 -24 6 -24 -4 0 -7 6 -11 13 -8 6 2 14 0 18 -5 6 -10 -24 -9 -41 1 -6 4
-15 2 -19 -4 -5 -8 -3 -9 6 -4 9 5 11 4 6 -4 -6 -9 -11 -9 -22 0 -14 11 -19 2
-15 -24 1 -5 -3 -6 -9 -2 -15 9 -52 -14 -44 -28 4 -7 -3 -3 -16 8 -13 11 -20
15 -17 8 4 -6 3 -14 -3 -18 -5 -3 -10 -1 -10 6 0 7 -7 4 -15 -7 -15 -19 -15
-19 -8 1 6 18 5 18 -10 6 -9 -7 -14 -18 -10 -24 3 -6 1 -7 -5 -3 -6 4 -10 12
-8 19 1 7 1 9 -1 4 -3 -4 -10 -4 -15 -1 -7 5 -8 2 -3 -6 6 -10 4 -12 -9 -7
-10 4 -15 3 -11 -3 3 -6 1 -10 -4 -10 -6 0 -11 5 -11 12 0 6 -3 8 -6 5 -4 -4
-1 -13 5 -21 10 -12 8 -13 -10 -9 -15 4 -20 2 -15 -5 4 -7 -8 -5 -30 4 -19 8
-33 10 -29 5 6 -10 -8 -16 -29 -12 -4 1 -15 -4 -23 -10 -8 -7 -13 -8 -12 -3 1
5 0 20 -1 34 l-2 25 -8 -25 c-7 -21 -8 -22 -9 -5 -1 17 -3 17 -11 5 -5 -8 -10
-10 -10 -4 0 6 3 14 7 18 11 10 12 37 2 30 -5 -3 -6 -10 -3 -16 4 -6 3 -8 -3
-5 -5 3 -9 16 -8 29 1 13 -3 30 -9 38 -9 13 -9 13 5 2 14 -10 18 -10 23 3 3 9
2 13 -3 10 -5 -3 -13 0 -18 7 -15 25 -11 36 11 31 17 -4 18 -3 6 6 -9 6 -13
23 -11 47 2 27 0 34 -10 29 -8 -5 -10 -4 -5 4 4 7 17 9 29 6 12 -4 17 -3 11 2
-6 4 -10 20 -9 35 1 15 -2 25 -6 22 -5 -3 -6 3 -2 12 5 13 3 15 -8 9 -11 -6
-11 -5 -2 5 6 7 9 19 6 26 -3 8 0 14 6 14 6 0 11 5 11 11 0 5 -4 8 -8 5 -4 -2
-8 8 -7 24 0 15 3 26 7 23 5 -2 8 1 8 7 0 6 6 8 13 4 6 -4 9 -3 4 1 -4 5 0 20
9 34 9 14 11 20 3 14 -7 -7 -16 -13 -20 -13 -9 0 -5 27 6 37 4 4 5 2 0 -6 -5
-10 -4 -12 4 -7 6 4 8 13 4 19 -11 18 -12 38 -2 31 5 -3 6 -10 3 -16 -4 -7 -2
-8 4 -4 9 5 9 13 0 29 -10 20 -10 21 6 8 14 -12 16 -12 10 3 -3 9 -9 16 -13
16 -4 0 -8 7 -8 15 0 11 4 12 14 3 7 -6 16 -8 20 -4 3 3 1 6 -5 6 -6 0 -9 7
-6 15 5 11 1 14 -12 9 -14 -4 -15 -3 -6 3 7 6 14 20 15 31 1 12 5 22 10 22 4
0 5 5 2 10 -4 6 -3 10 2 9 23 -4 32 2 26 18 -5 12 -3 14 8 9 8 -4 5 1 -7 11
-19 17 -19 20 -6 33 9 8 22 15 30 16 8 2 17 5 20 9 9 9 11 35 2 35 -5 0 -7 8
-5 18 2 9 4 20 4 25 1 4 8 7 17 7 11 0 14 5 10 16 -6 15 -4 15 10 3 16 -13 16
-12 4 11 -13 24 -12 24 5 10 10 -8 16 -10 12 -3 -4 6 -3 14 3 18 5 3 10 15 10
25 0 14 5 18 18 13 15 -6 15 -5 3 10 -8 10 -11 20 -7 24 3 3 6 1 6 -4 0 -15
33 -10 38 5 2 7 9 9 14 6 7 -4 8 -2 4 4 -4 6 -13 9 -21 6 -8 -4 -12 -11 -8
-17 3 -6 1 -7 -6 -3 -15 10 4 36 25 36 15 0 19 15 7 23 -5 2 -2 2 5 1 6 -2 12
2 12 9 0 8 3 8 9 -2 6 -9 11 -10 15 -2 4 6 5 11 1 11 -17 0 18 39 37 42 15 2
22 9 20 20 -2 12 2 16 13 12 11 -5 14 -2 9 9 -4 12 -1 15 16 12 18 -4 20 -2 9
11 -10 12 -9 13 6 8 13 -5 16 -4 11 4 -4 7 -2 12 4 12 6 0 8 4 5 10 -3 6 1 7
9 4 9 -3 16 -1 16 5 0 6 5 11 11 11 5 0 7 -5 3 -12 -4 -7 -3 -8 4 -4 6 4 9 13
5 21 -3 10 2 15 16 15 12 0 21 5 21 11 0 5 4 8 9 4 6 -3 8 3 6 14 -3 15 2 19
21 16 18 -2 22 1 14 10 -8 9 -4 11 14 8 18 -4 25 0 29 18 5 20 8 21 23 8 10
-8 15 -9 12 -4 -4 6 2 17 14 24 11 7 18 8 14 3 -3 -5 1 -9 9 -9 8 0 11 5 8 10
-4 7 1 8 12 3 16 -6 16 -4 4 11 -12 14 -12 16 0 8 10 -6 13 -4 9 6 -4 10 1 15
13 15 11 0 19 -4 19 -9 0 -4 5 -5 10 -2 6 4 8 10 5 15 -3 4 5 6 17 2 12 -3 19
-1 15 5 -3 5 1 10 9 10 9 0 13 -6 9 -16 -5 -12 -3 -13 5 -5 6 6 12 20 13 32 1
17 4 19 21 10 16 -9 18 -8 12 8 -6 15 -5 17 5 7 16 -16 33 -17 23 -1 -5 7 -3
8 7 3 22 -14 48 -13 42 2 -4 11 -9 11 -22 1 -14 -10 -14 -10 -3 2 7 8 18 15
25 15 7 1 11 5 10 11 -1 5 9 10 23 10 13 0 24 -4 24 -9 0 -4 5 -5 10 -2 6 4 7
11 4 17 -4 6 3 5 16 -2 13 -7 20 -8 16 -2 -4 6 2 15 11 21 10 6 12 11 6 11 -7
0 -13 7 -13 16 0 14 2 15 18 3 14 -11 13 -10 -2 9 -19 21 -32 30 -22 14 2 -4
1 -14 -4 -21 -5 -9 -7 -2 -6 18 1 34 5 37 26 19 12 -11 12 -10 3 2 -11 15 -13
20 -13 41 0 5 -3 8 -8 5 -10 -6 -8 62 3 71 4 5 5 1 0 -7 -5 -8 -4 -12 0 -7 5
4 9 16 10 27 1 15 -2 17 -11 9 -8 -7 -14 -6 -20 2 -4 7 -3 9 3 6 6 -4 14 0 17
9 3 8 10 12 16 9 16 -10 11 1 -7 16 -15 12 -16 12 -8 -1 4 -8 4 -12 0 -7 -5 4
-10 14 -11 23 -2 11 4 13 19 9 18 -5 19 -4 7 4 -13 10 -13 12 0 22 12 8 10 9
-7 4 -13 -3 -23 -2 -23 3 0 5 8 12 18 14 10 3 19 12 19 21 0 9 -4 14 -9 11 -5
-3 -6 -9 -4 -13 3 -4 -1 -8 -9 -8 -11 0 -11 4 1 22 13 19 12 24 -5 39 -11 10
-25 15 -32 10 -9 -5 -10 -2 -6 9 3 9 1 19 -5 23 -7 4 -8 3 -4 -4 4 -7 2 -12
-4 -12 -6 0 -9 -4 -6 -8 2 -4 -5 -9 -16 -9 -16 -2 -18 1 -9 10 6 6 11 15 11
20 0 5 -7 1 -16 -7 -8 -9 -20 -13 -25 -10 -6 3 -13 -4 -16 -16 -4 -16 -8 -18
-14 -8 -7 11 -11 10 -19 -2 -9 -14 -15 -6 -10 15 1 6 -2 7 -6 3 -4 -4 -12 -4
-18 1 -7 6 -16 3 -25 -6 -12 -13 -11 -14 8 -8 12 4 21 2 21 -4 0 -6 -3 -10 -7
-10 -25 4 -43 -2 -37 -13 4 -7 3 -8 -4 -4 -6 4 -9 14 -6 24 4 10 3 13 -3 6 -4
-5 -23 -10 -40 -9 l-33 1 17 -26 c16 -24 16 -24 -2 -10 -17 14 -18 13 -12 -3
4 -11 3 -16 -4 -12 -6 4 -8 13 -5 21 7 18 1 18 -18 -2 -9 -8 -16 -11 -16 -5 0
6 -4 11 -9 11 -5 0 -8 -6 -7 -12 0 -7 -3 -14 -9 -15 -5 -1 -9 6 -7 15 2 12 -3
10 -16 -7 -14 -18 -21 -20 -24 -10 -4 11 -8 12 -20 2 -8 -7 -18 -9 -23 -5 -4
4 -3 -3 3 -15 10 -18 9 -20 -8 -16 -11 3 -17 9 -14 14 3 5 0 9 -6 9 -7 0 -10
-7 -7 -15 4 -8 2 -17 -3 -20 -6 -4 -10 -1 -10 4 0 6 -8 11 -17 11 -15 0 -16
-2 -3 -10 22 -14 5 -23 -19 -11 -17 10 -20 9 -15 -4 4 -8 10 -15 15 -15 5 0 9
-5 9 -11 0 -8 -4 -8 -15 1 -8 6 -19 9 -24 5 -6 -3 -9 0 -8 7 2 7 2 10 0 5 -3
-4 -9 -5 -14 -1 -5 3 -14 -6 -21 -20 -6 -14 -15 -26 -20 -26 -5 0 -6 5 -3 10
3 6 1 10 -4 10 -6 0 -11 -5 -11 -11 0 -6 -7 -8 -16 -5 -13 5 -14 3 -6 -7 9
-10 4 -13 -21 -15 -17 -2 -36 -7 -42 -13 -7 -7 -5 -8 6 -4 10 4 19 2 23 -3 3
-5 -9 -8 -27 -7 -34 2 -72 -17 -59 -30 4 -4 -1 -5 -10 -2 -13 5 -16 1 -12 -21
3 -16 1 -22 -4 -15 -6 10 -12 10 -28 -1 -15 -11 -22 -12 -33 -3 -12 9 -13 9
-7 0 7 -12 -5 -18 -27 -14 -4 1 -3 -9 4 -21 6 -13 8 -20 4 -16 -5 4 -15 2 -24
-5 -14 -11 -15 -10 -1 7 14 18 14 19 -6 8 -12 -6 -25 -8 -30 -4 -5 4 -2 -1 5
-11 12 -15 12 -20 1 -30 -9 -9 -11 -9 -6 0 3 6 2 14 -4 18 -5 3 -10 1 -10 -5
0 -6 -4 -9 -9 -5 -5 3 -13 0 -17 -6 -4 -7 -3 -9 4 -5 16 9 26 -14 13 -27 -9
-9 -11 -8 -6 3 4 11 -1 16 -14 17 -14 1 -18 -3 -14 -15 4 -13 3 -14 -5 -4 -11
16 -21 15 -42 -1 -13 -10 -13 -10 -2 5 11 14 10 17 -5 20 -15 3 -14 5 5 10 12
3 20 2 17 -2 -3 -4 4 -6 15 -3 32 8 32 19 1 17 -16 -1 -35 3 -42 8 -11 8 -11
9 3 5 26 -9 29 4 6 24 -11 11 -17 19 -12 19 6 0 15 -5 22 -10 6 -6 10 -7 7 -4
-3 4 3 13 13 21 16 12 16 13 0 7 -10 -3 -24 1 -33 9 -23 24 -18 32 8 11 12
-10 19 -15 15 -10 -4 5 -3 15 4 23 18 22 -6 40 -28 22 -16 -13 -16 -12 -4 8 8
12 16 21 19 20 4 -1 6 3 6 8 0 6 -5 10 -10 9 -6 -1 -11 7 -11 17 0 14 3 15 14
7 10 -9 12 -8 10 3 -2 8 3 13 10 11 8 -1 11 2 7 7 -3 6 -13 7 -23 4 -12 -5
-10 1 8 22 l25 28 -30 -19 c-30 -18 -30 -18 -14 1 16 20 22 55 9 55 -3 0 -12
-6 -20 -12 -8 -7 -6 -3 4 10 17 20 15 27 -6 23 -5 0 -8 4 -8 9 0 6 5 10 10 10
6 0 10 7 10 15 0 8 5 15 10 15 7 0 7 -6 0 -20 -6 -11 -7 -20 -3 -20 4 0 13 11
20 25 6 14 7 23 3 20 -5 -3 -11 -1 -15 5 -4 6 -11 8 -17 4 -5 -3 -2 9 8 27 13
27 14 31 2 22 -12 -10 -15 -10 -15 1 0 9 9 13 23 11 13 -1 21 2 18 6 -3 5 -12
9 -20 9 -9 0 -14 6 -11 13 2 6 10 11 16 9 7 -1 10 2 6 8 -3 6 -10 8 -15 5 -5
-3 -12 0 -16 6 -5 8 -3 9 6 4 10 -6 12 -4 7 8 -3 9 -2 19 3 22 11 7 9 45 -3
45 -4 0 -5 5 -2 10 5 8 12 7 23 -1 15 -11 15 -11 0 6 -15 16 -19 16 -34 4 -16
-13 -16 -12 -4 8 8 12 17 21 21 20 4 -1 6 3 5 8 0 6 -6 10 -11 9 -6 -1 -11 7
-11 17 0 14 3 15 14 7 10 -9 12 -8 10 3 -2 8 3 13 10 11 8 -1 11 2 7 7 -3 6
-13 7 -23 4 -12 -5 -10 1 8 22 l25 28 -30 -19 c-30 -18 -30 -18 -14 1 16 20
22 55 9 55 -3 0 -12 -6 -20 -12 -8 -7 -6 -3 4 10 17 20 15 27 -6 23 -5 0 -8 3
-8 9 0 5 5 10 10 10 6 0 10 7 10 15 0 8 5 15 10 15 7 0 7 -6 0 -20 -6 -11 -7
-20 -3 -20 4 0 13 11 20 25 6 14 7 23 3 20 -5 -3 -11 -1 -15 5 -4 6 -11 8 -17
4 -5 -3 -2 9 8 27 13 27 14 31 2 22 -12 -10 -15 -10 -15 1 0 9 9 13 23 11 13
-1 21 2 18 6 -3 5 -12 9 -20 9 -9 0 -14 6 -11 13 2 6 13 11 23 9 15 -2 16 -1
4 7 -8 5 -17 8 -21 5 -4 -2 -11 1 -15 7 -5 8 -3 9 6 4 10 -6 12 -4 7 8 -3 9
-2 19 3 22 11 7 9 45 -3 45 -5 0 -3 8 4 17 12 15 12 16 -3 10 -12 -4 -15 -2
-12 8 3 8 12 11 19 9 7 -3 16 -1 20 5 3 6 0 9 -8 5 -8 -3 -20 3 -28 13 -13 16
-12 17 3 5 12 -10 18 -10 24 -1 5 8 3 9 -6 4 -9 -5 -10 -2 -5 14 4 12 2 21 -4
21 -6 0 -11 5 -11 11 0 5 5 7 10 4 6 -3 10 -1 10 5 0 7 -8 9 -22 4 -19 -6 -21
-4 -13 8 6 7 2 5 -7 -5 -10 -11 -18 -14 -18 -7 0 7 -7 10 -15 6 -9 -3 -18 1
-22 10 -5 13 -7 13 -14 2 -7 -10 -9 -11 -9 0 0 7 -5 10 -10 7 -8 -5 -7 -12 2
-22 12 -15 11 -15 -9 -3 -18 12 -20 17 -10 29 10 12 9 12 -10 1 -18 -12 -20
-17 -10 -30 11 -13 10 -13 -6 -1 -15 12 -20 12 -26 2 -6 -10 -10 -9 -15 4 -3
9 -10 13 -16 10 -5 -3 -10 -2 -10 3 0 5 -10 8 -22 8 -13 -1 -29 3 -37 8 -12 9
-12 7 -3 -11z m47 -12 c3 -5 0 -13 -6 -17 -7 -4 -9 -3 -5 4 3 5 0 13 -6 15 -9
4 -10 6 -1 6 6 1 14 -3 18 -8z m-155 -151 c0 -5 -5 -10 -11 -10 -5 0 -7 5 -4
10 3 6 8 10 11 10 2 0 4 -4 4 -10z m389 -4 c9 -11 9 -16 0 -22 -8 -4 -9 -3 -5
4 4 7 2 12 -3 12 -6 0 -11 5 -11 10 0 14 5 13 19 -4z m-389 -396 c0 -5 -2 -10
-4 -10 -3 0 -8 5 -11 10 -3 6 -1 10 4 10 6 0 11 -4 11 -10z m389 -84 c9 -11 9
-16 0 -22 -8 -4 -9 -3 -5 4 4 7 2 12 -3 12 -6 0 -11 5 -11 10 0 14 5 13 19 -4z
m-1454 -235 c-6 -5 -25 10 -25 20 0 5 6 4 14 -3 8 -7 12 -15 11 -17z m2546 12
c8 -9 9 -14 2 -10 -6 4 -13 1 -16 -5 -3 -7 -4 -3 -4 10 1 26 1 26 18 5z
m-2107 -85 c-3 -5 -12 -4 -20 3 -7 6 -11 15 -8 21 3 5 12 4 20 -3 7 -6 11 -15
8 -21z m1663 17 c0 -8 -4 -12 -9 -9 -5 3 -6 10 -3 15 9 13 12 11 12 -6z
m-1537 -65 c-8 -5 -19 -10 -25 -10 -5 0 -3 5 5 10 8 5 20 10 25 10 6 0 3 -5
-5 -10z m1361 -13 c-10 -9 -11 -8 -5 6 3 10 9 15 12 12 3 -3 0 -11 -7 -18z
m-1937 -56 c3 -5 -1 -14 -8 -20 -12 -10 -14 -9 -11 6 2 10 4 19 4 21 2 5 10 2
15 -7z m779 -28 c-3 -7 -6 -13 -8 -13 -2 0 -5 6 -8 13 -3 8 1 14 8 14 7 0 11
-6 8 -14z m1012 8 c3 -5 0 -13 -6 -17 -8 -4 -9 -3 -5 4 4 7 2 12 -3 12 -6 0
-11 -5 -11 -12 0 -6 -3 -9 -6 -5 -7 7 4 27 16 27 5 0 11 -4 15 -9z m-305 -11
c0 -5 -5 -10 -11 -10 -5 0 -7 5 -4 10 3 6 8 10 11 10 2 0 4 -4 4 -10z m-1320
-226 c0 -8 -5 -12 -10 -9 -6 4 -8 11 -5 16 9 14 15 11 15 -7z m147 -50 c-3 -4
4 -15 16 -26 l22 -19 -27 17 c-24 14 -30 34 -11 34 4 0 4 -3 0 -6z m-744 -228
c3 -8 -2 -20 -11 -28 -15 -12 -16 -11 -3 5 15 20 9 22 -22 6 -19 -9 -18 -7 3
10 30 25 27 24 33 7z m-63 -11 c-7 -9 -15 -13 -19 -10 -3 3 1 10 9 15 21 14
24 12 10 -5z m3320 2 c0 -5 -7 -7 -15 -3 -8 3 -15 0 -15 -6 0 -6 -3 -9 -6 -5
-3 3 -4 10 0 15 7 12 36 11 36 -1z m364 -3 c3 -8 2 -12 -4 -9 -6 3 -10 10 -10
16 0 14 7 11 14 -7z m31 -24 c3 -5 1 -10 -4 -10 -6 0 -11 5 -11 10 0 6 2 10 4
10 3 0 8 -4 11 -10z m-3291 -346 c3 -8 2 -12 -4 -9 -6 3 -10 10 -10 16 0 14 7
11 14 -7z m1701 6 c3 -5 -1 -10 -10 -10 -9 0 -13 5 -10 10 3 6 8 10 10 10 2 0
7 -4 10 -10z m-694 -53 c-10 -9 -11 -8 -5 6 3 10 9 15 12 12 3 -3 0 -11 -7
-18z m-1517 -13 c3 -8 2 -12 -4 -9 -6 3 -10 10 -10 16 0 14 7 11 14 -7z m1
-32 c-3 -3 -11 0 -18 7 -9 10 -8 11 6 5 10 -3 15 -9 12 -12z m3165 -2 c0 -5
-2 -10 -4 -10 -3 0 -8 5 -11 10 -3 6 -1 10 4 10 6 0 11 -4 11 -10z m509 -101
c-6 -12 -13 -18 -16 -15 -3 3 -1 12 5 19 7 8 8 18 4 22 -4 5 -1 5 6 1 9 -5 9
-12 1 -27z m-3604 -57 c-3 -3 -11 0 -18 7 -9 10 -8 11 6 5 10 -3 15 -9 12 -12z
m15 -18 c0 -8 -19 -13 -24 -6 -3 5 1 9 9 9 8 0 15 -2 15 -3z m618 -26 c10 -12
10 -18 1 -24 -8 -4 -9 -3 -5 4 4 7 2 12 -3 12 -6 0 -11 8 -11 17 0 9 1 14 3
12 1 -2 8 -11 15 -21z m-571 -64 c0 -7 -6 -10 -14 -7 -7 3 -13 8 -13 12 0 4 6
8 13 8 8 0 14 -6 14 -13z m613 -4 c0 -5 -5 -10 -11 -10 -5 0 -7 5 -4 10 3 6 8
10 11 10 2 0 4 -4 4 -10z m25 -10 c3 -5 1 -10 -4 -10 -6 0 -11 5 -11 10 0 6 2
10 4 10 3 0 8 -4 11 -10z m2780 -30 c-3 -5 -12 -10 -18 -10 -7 0 -6 4 3 10 19
12 23 12 15 0z m-1908 -26 c-3 -3 -12 -4 -19 -1 -8 3 -5 6 6 6 11 1 17 -2 13
-5z m1250 -5 c-9 -6 -14 -15 -11 -21 4 -7 2 -8 -5 -4 -14 9 3 36 23 36 6 0 3
-5 -7 -11z m-1967 -101 c0 -6 -6 -5 -15 2 -8 7 -15 14 -15 16 0 2 7 1 15 -2 8
-4 15 -11 15 -16z m1144 -4 c5 -14 4 -15 -9 -4 -17 14 -19 20 -6 20 5 0 12 -7
15 -16z m-417 -53 c0 -11 -5 -18 -9 -15 -4 3 -5 11 -1 19 7 21 12 19 10 -4z
m1063 -6 c-7 -8 -17 -15 -22 -15 -11 0 14 29 26 30 5 0 3 -7 -4 -15z m-1680
-13 c0 -5 -7 -9 -15 -9 -8 0 -12 4 -9 9 3 4 9 8 15 8 5 0 9 -4 9 -8z m1644
-10 c2 -4 -5 -9 -17 -9 -17 -2 -19 0 -7 7 18 12 18 12 24 2z m716 5 c0 -2 -9
-12 -19 -21 -14 -13 -21 -14 -27 -5 -4 8 -3 10 5 5 6 -4 14 0 17 8 5 14 24 23
24 13z m-3035 -55 c-3 -3 -11 0 -18 7 -9 10 -8 11 6 5 10 -3 15 -9 12 -12z
m2965 -2 c0 -5 -5 -10 -11 -10 -5 0 -7 5 -4 10 3 6 8 10 11 10 2 0 4 -4 4 -10z
m-2130 -39 c0 -4 -7 -8 -15 -8 -8 0 -15 6 -15 13 0 8 6 11 15 8 8 -4 15 -9 15
-13z m1110 -95 c0 -3 -4 -8 -10 -11 -5 -3 -10 -1 -10 4 0 6 5 11 10 11 6 0 10
-2 10 -4z m573 -257 c-8 -8 -13 -7 -18 2 -5 8 -4 10 3 5 7 -4 12 -2 12 5 0 7
3 9 7 6 4 -4 2 -12 -4 -18z m-73 -45 c-10 -11 -40 -9 -40 3 0 3 7 2 16 -1 11
-4 15 -2 11 8 -4 10 -1 13 9 9 11 -4 12 -9 4 -19z m-1866 7 c3 -5 -2 -15 -12
-22 -15 -12 -16 -12 -5 2 7 9 10 19 6 22 -3 4 -4 7 0 7 3 0 8 -4 11 -9z m46
-41 c0 -5 -2 -10 -4 -10 -3 0 -8 5 -11 10 -3 6 -1 10 4 10 6 0 11 -4 11 -10z
m131 -60 c6 0 7 5 3 12 -5 7 -3 8 5 3 9 -5 9 -11 3 -17 -12 -12 -32 -2 -31 15
0 9 2 9 6 0 2 -7 9 -13 14 -13z m1440 -23 c-10 -9 -11 -8 -5 6 3 10 9 15 12
12 3 -3 0 -11 -7 -18z m-1351 -1 c0 -3 -4 -8 -10 -11 -5 -3 -10 -1 -10 4 0 6
5 11 10 11 6 0 10 -2 10 -4z m40 -27 c0 -6 -4 -7 -10 -4 -5 3 -10 11 -10 16 0
6 5 7 10 4 6 -3 10 -11 10 -16z m24 -5 c3 -8 2 -12 -4 -9 -6 3 -10 10 -10 16
0 14 7 11 14 -7z m1178 2 c7 4 8 2 4 -5 -9 -13 -26 -5 -25 12 0 9 2 8 6 -1 2
-6 10 -9 15 -6z m-928 -61 c-4 -8 -8 -15 -10 -15 -2 0 -4 7 -4 15 0 8 4 15 10
15 5 0 7 -7 4 -15z m523 -239 c0 -8 -6 -12 -15 -9 -11 5 -11 7 0 14 7 5 13 9
14 9 0 0 1 -6 1 -14z m3 -38 c0 -4 -4 -8 -9 -8 -6 0 -12 4 -15 8 -3 5 1 9 9 9
8 0 15 -4 15 -9z m0 -112 c0 -2 -7 -7 -16 -10 -8 -3 -12 -2 -9 4 6 10 25 14
25 6z m0 -100 c0 -2 -7 -7 -16 -10 -8 -3 -12 -2 -9 4 6 10 25 14 25 6z m0 -26
c0 -5 -5 -10 -11 -10 -5 0 -7 5 -4 10 3 6 8 10 11 10 2 0 4 -4 4 -10z m-4
-194 c0 -21 -3 -23 -18 -15 -22 12 -24 21 -3 12 9 -3 15 -2 14 3 -2 12 0 24 4
24 2 0 3 -11 3 -24z m-1 -46 c3 -5 1 -10 -4 -10 -6 0 -11 5 -11 10 0 6 2 10 4
10 3 0 8 -4 11 -10z m-362 -40 c-3 -12 -8 -19 -11 -16 -5 6 5 36 12 36 2 0 2
-9 -1 -20z m127 -44 c-7 -7 -13 -7 -20 0 -6 6 -3 10 10 10 13 0 16 -4 10 -10z"/>
<path d="M2469 4783 c-13 -17 -13 -17 6 -3 11 8 22 16 24 17 2 2 0 3 -6 3 -6
0 -17 -8 -24 -17z"/>
<path d="M2580 4782 c0 -4 9 -8 20 -8 11 0 20 4 20 8 0 4 -9 8 -20 8 -11 0
-20 -4 -20 -8z"/>
<path d="M2828 4683 c7 -3 16 -2 19 1 4 3 -2 6 -13 5 -11 0 -14 -3 -6 -6z"/>
<path d="M2825 4569 c-4 -6 -4 -13 -1 -16 3 -4 6 -1 6 6 0 7 5 9 12 5 7 -4 8
-3 4 4 -9 15 -13 15 -21 1z"/>
<path d="M2213 4537 c-3 -6 -1 -7 5 -3 6 3 15 -2 21 -11 9 -16 10 -16 8 3 -1
21 -23 28 -34 11z"/>
<path d="M2667 4457 c-3 -8 1 -14 8 -14 7 0 11 6 8 14 -3 7 -6 13 -8 13 -2 0
-5 -6 -8 -13z"/>
<path d="M2213 4417 c-3 -6 -1 -7 5 -3 6 3 15 -2 21 -11 9 -16 10 -16 8 3 -1
21 -23 28 -34 11z"/>
<path d="M2050 4321 c0 -6 4 -12 8 -15 5 -3 9 1 9 9 0 8 -4 15 -9 15 -4 0 -8
-4 -8 -9z"/>
<path d="M2213 4297 c-3 -6 -1 -7 5 -3 6 3 15 -2 21 -11 9 -16 10 -16 8 3 -1
21 -23 28 -34 11z"/>
<path d="M2233 4170 c1 -11 5 -20 9 -20 3 0 6 9 5 20 -1 11 -5 20 -9 20 -3 0
-6 -9 -5 -20z"/>
<path d="M2835 4160 c-3 -5 -1 -10 4 -10 6 0 11 5 11 10 0 6 -2 10 -4 10 -3 0
-8 -4 -11 -10z"/>
<path d="M2222 4120 c0 -14 2 -19 5 -12 2 6 2 18 0 25 -3 6 -5 1 -5 -13z"/>
<path d="M2825 4090 c-3 -5 1 -13 10 -16 22 -9 29 1 11 15 -10 8 -16 9 -21 1z"/>
<path d="M2222 4040 c0 -14 2 -19 5 -12 2 6 2 18 0 25 -3 6 -5 1 -5 -13z"/>
<path d="M1704 3999 c-4 -7 -3 -10 4 -5 6 3 15 -2 21 -11 5 -10 12 -15 15 -12
4 3 -2 14 -13 23 -14 13 -21 14 -27 5z"/>
<path d="M2667 3977 c-3 -8 1 -14 8 -14 7 0 11 6 8 14 -3 7 -6 13 -8 13 -2 0
-5 -6 -8 -13z"/>
<path d="M2222 3960 c0 -14 2 -19 5 -12 2 6 2 18 0 25 -3 6 -5 1 -5 -13z"/>
<path d="M1223 3955 c0 -6 8 -11 17 -11 9 0 17 5 17 11 0 6 -8 11 -17 11 -9 0
-17 -5 -17 -11z"/>
<path d="M1297 3955 c-4 -8 -3 -16 1 -19 4 -3 9 4 9 15 2 23 -3 25 -10 4z"/>
<path d="M2827 3949 c7 -7 15 -10 18 -7 3 3 -2 9 -12 12 -14 6 -15 5 -6 -5z"/>
<path d="M2066 3917 c3 -10 9 -15 12 -12 3 3 0 11 -7 18 -10 9 -11 8 -5 -6z"/>
<path d="M2823 3915 c0 -8 4 -12 9 -9 4 3 8 9 8 15 0 5 -4 9 -8 9 -5 0 -9 -7
-9 -15z"/>
<path d="M2977 3913 c-4 -3 -7 -11 -7 -17 0 -6 5 -5 12 2 6 6 9 14 7 17 -3 3
-9 2 -12 -2z"/>
<path d="M2222 3880 c0 -14 2 -19 5 -12 2 6 2 18 0 25 -3 6 -5 1 -5 -13z"/>
<path d="M2850 3880 c0 -5 5 -10 11 -10 5 0 8 -4 5 -8 -2 -4 4 -8 15 -8 24 0
24 0 -6 20 -14 9 -25 12 -25 6z"/>
<path d="M1905 3720 c-3 -6 1 -7 9 -4 18 7 21 14 7 14 -6 0 -13 -4 -16 -10z"/>
<path d="M3746 3681 c-3 -5 1 -14 9 -21 10 -9 15 -9 15 -1 0 6 -5 11 -11 11
-5 0 -7 5 -4 10 3 6 4 10 1 10 -3 0 -7 -4 -10 -9z"/>
<path d="M2866 3658 c3 -4 9 -8 15 -8 5 0 9 4 9 8 0 5 -7 9 -15 9 -8 0 -12 -4
-9 -9z"/>
<path d="M2050 3647 c0 -9 5 -17 11 -17 5 0 7 -5 3 -12 -4 -7 -3 -8 5 -4 9 6
9 12 -1 24 -7 10 -14 19 -15 21 -2 2 -3 -3 -3 -12z"/>
<path d="M1153 3571 c0 -11 5 -18 9 -15 4 3 5 11 1 19 -7 21 -12 19 -10 -4z"/>
<path d="M3661 3486 c-7 -8 -8 -17 -3 -20 6 -3 15 1 21 8 7 8 8 17 3 20 -6 3
-15 -1 -21 -8z"/>
<path d="M1242 3485 c4 -4 3 -14 -3 -22 -7 -8 -8 -13 -1 -13 15 0 23 28 9 36
-7 4 -9 4 -5 -1z"/>
<path d="M3995 3369 c-4 -6 -4 -13 -1 -16 3 -4 6 -1 6 6 0 7 5 9 12 5 7 -4 8
-3 4 4 -9 15 -13 15 -21 1z"/>
<path d="M4110 3376 c0 -2 7 -7 16 -10 8 -3 12 -2 9 4 -6 10 -25 14 -25 6z"/>
<path d="M3706 3301 c-3 -5 -19 -7 -36 -6 -19 2 -27 -1 -23 -8 4 -7 0 -8 -12
-3 -16 6 -16 4 -4 -11 9 -11 10 -14 2 -9 -8 4 -13 2 -13 -6 0 -9 -3 -9 -10 2
-5 8 -10 10 -10 4 0 -7 -7 -15 -16 -18 -8 -3 -12 -2 -9 4 3 6 2 10 -2 10 -5 0
-14 -9 -21 -21 -11 -17 -16 -19 -29 -7 -14 11 -15 11 -8 -1 6 -11 4 -13 -10
-7 -15 5 -16 4 -5 -9 11 -13 10 -14 -5 -8 -15 5 -17 3 -12 -13 6 -16 5 -17 -5
-4 -15 19 -26 19 -53 1 -14 -9 -15 -11 -3 -7 11 3 15 1 12 -8 -3 -8 -14 -12
-25 -9 -10 3 -19 0 -19 -6 0 -6 5 -11 12 -11 6 0 8 -3 5 -6 -4 -4 -14 -1 -24
7 -11 9 -14 10 -9 2 6 -11 -15 -18 -45 -15 -3 1 -6 -6 -6 -13 0 -11 4 -12 14
-4 9 8 13 8 13 1 0 -10 -40 -28 -49 -23 -2 2 -8 -4 -13 -13 -5 -9 -14 -16 -19
-16 -6 0 -7 5 -3 12 4 7 3 8 -5 4 -9 -6 -9 -11 1 -23 11 -14 10 -15 -11 -8
-18 5 -22 4 -16 -6 6 -9 3 -11 -10 -6 -15 6 -17 3 -12 -20 5 -26 4 -26 -9 -8
-14 19 -14 19 -15 -1 -1 -10 -1 -22 0 -26 0 -4 -7 -4 -16 -1 -12 5 -14 3 -8
-7 5 -9 4 -11 -3 -6 -7 4 -12 2 -12 -3 0 -6 -5 -11 -11 -11 -5 0 -7 5 -3 12 4
7 3 8 -5 4 -6 -4 -9 -11 -6 -15 2 -5 -4 -16 -15 -26 -14 -13 -20 -14 -20 -5 0
7 -2 11 -5 8 -3 -3 -1 -17 5 -32 9 -25 9 -26 -13 -15 -20 11 -21 11 -8 -5 12
-15 12 -17 0 -14 -8 2 -17 8 -21 13 -5 6 -8 6 -8 -2 0 -7 8 -17 18 -22 15 -9
14 -10 -7 -11 -19 0 -21 -3 -12 -14 9 -11 8 -14 -6 -12 -13 1 -19 -7 -21 -28
-3 -23 -6 -26 -14 -15 -7 10 -8 7 -5 -14 3 -22 2 -25 -10 -16 -11 10 -12 8 -7
-6 5 -13 4 -16 -5 -10 -10 6 -11 3 -2 -12 12 -24 -9 -61 -28 -49 -6 4 -10 4
-9 -1 1 -4 -4 -19 -11 -32 -7 -13 -9 -21 -3 -17 5 3 12 -1 16 -9 3 -8 -3 -19
-12 -24 -11 -7 -12 -11 -4 -11 7 0 10 -5 7 -10 -5 -8 -12 -7 -23 2 -14 10 -15
10 -4 -2 14 -16 16 -34 3 -26 -5 4 -7 -3 -4 -15 4 -14 8 -17 13 -9 5 8 10 8
14 2 3 -5 -1 -13 -9 -16 -8 -3 -14 -9 -13 -13 2 -4 0 -9 -4 -11 -17 -5 -20 -1
-10 11 6 7 7 18 3 26 -6 9 -11 10 -15 2 -4 -6 -2 -11 5 -11 8 0 8 -4 2 -12
-14 -17 -12 -49 1 -41 6 4 5 -1 -3 -10 -11 -14 -11 -20 -1 -32 7 -9 10 -18 6
-22 -3 -3 -6 -1 -6 5 0 7 -4 12 -8 12 -4 0 -7 -20 -6 -45 1 -25 -3 -48 -8 -51
-5 -3 -4 -11 2 -19 7 -8 9 -24 5 -36 -5 -14 -3 -19 3 -15 6 3 14 1 18 -5 4 -7
3 -9 -4 -5 -16 9 -26 -13 -13 -28 14 -17 54 -29 44 -13 -4 7 0 8 11 4 13 -5
19 -1 23 13 3 11 10 20 15 20 5 0 6 -6 2 -12 -6 -9 -3 -9 9 0 9 8 21 11 27 7
5 -3 10 2 10 12 0 15 2 16 11 3 9 -12 10 -11 6 7 -3 15 -1 20 9 16 8 -3 11
-10 7 -17 -4 -6 1 -5 11 3 9 8 15 20 12 28 -5 11 -1 11 15 2 17 -9 20 -8 14 2
-6 9 -3 11 9 6 11 -5 15 -3 10 5 -5 7 -2 9 8 5 12 -4 15 0 11 16 -4 18 -3 19
6 7 10 -14 12 -13 15 9 2 19 16 24 16 6 0 -21 10 -14 14 9 1 9 6 16 10 16 4
-1 15 7 24 18 9 10 13 13 9 6 -5 -7 -3 -15 4 -20 7 -4 9 -3 6 3 -3 5 3 16 14
23 20 15 27 36 7 24 -7 -4 -8 -3 -4 4 5 9 13 9 29 0 21 -11 21 -10 7 7 -9 11
-10 16 -2 11 6 -4 12 -3 12 3 0 6 7 7 17 4 11 -4 14 -3 9 5 -4 7 -3 12 3 12 6
0 8 7 5 15 -7 18 12 20 20 3 3 -7 4 0 2 17 -3 25 -2 27 8 13 11 -15 13 -15 24
3 7 11 18 17 24 13 7 -5 8 -3 3 5 -5 9 -10 10 -18 2 -6 -6 -16 -11 -22 -11 -5
0 5 10 23 21 17 12 32 28 32 36 0 10 6 12 23 8 22 -7 22 -7 2 10 -11 9 -14 14
-7 10 7 -4 19 -1 28 5 12 10 12 16 2 28 -10 13 -10 14 0 8 11 -7 16 4 13 31
-1 6 3 14 9 18 6 3 7 0 4 -9 -7 -18 11 -22 21 -6 4 6 11 8 16 5 5 -3 6 1 2 10
-5 14 -8 14 -15 3 -8 -10 -9 -10 -5 2 2 8 12 14 21 14 9 -1 16 4 16 12 0 8 -6
11 -17 7 -13 -4 -15 -3 -8 5 6 5 18 12 28 14 10 1 17 7 17 11 -1 5 11 22 26
38 15 16 24 29 19 29 -4 0 -1 8 8 18 19 21 13 33 -11 26 -10 -3 -6 1 8 9 14 9
28 13 31 11 4 -2 6 4 4 13 -1 10 2 24 8 31 6 8 12 28 13 45 2 22 0 27 -6 17
-6 -8 -10 -11 -10 -7 0 5 12 25 28 45 15 20 21 32 13 28 -9 -6 -12 -5 -9 5 3
8 11 13 18 11 11 -3 11 0 0 12 -15 19 -24 21 -14 4 4 -7 3 -10 -1 -5 -12 11
-14 87 -1 80 5 -4 7 1 2 12 -5 14 -4 16 7 7 11 -9 13 -7 12 8 -1 11 -4 23 -8
26 -10 11 -8 24 4 24 5 0 7 -4 4 -10 -3 -5 -1 -10 5 -10 8 0 9 7 5 18 -4 9 -8
23 -8 30 0 6 -4 12 -9 12 -5 0 -6 5 -3 10 3 6 4 10 1 10 -3 0 -7 -4 -10 -9z
m4 -21 c0 -5 -5 -10 -11 -10 -5 0 -7 5 -4 10 3 6 8 10 11 10 2 0 4 -4 4 -10z
m-17 -235 c-3 -9 -8 -14 -10 -11 -3 3 -2 9 2 15 9 16 15 13 8 -4z m-17 -81
c-2 -15 -23 -34 -38 -34 -5 0 33 49 39 50 1 0 0 -7 -1 -16z m-21 -54 c-3 -5
-11 -10 -16 -10 -6 0 -7 5 -4 10 3 6 11 10 16 10 6 0 7 -4 4 -10z m-20 -50
c-3 -5 -12 -10 -18 -10 -7 0 -6 4 3 10 19 12 23 12 15 0z m-26 -23 c8 -11 5
-19 -15 -38 -17 -16 -23 -18 -19 -7 4 9 13 19 21 22 9 3 12 10 9 16 -4 6 -11
7 -17 4 -7 -4 -8 -2 -4 4 9 15 11 15 25 -1z m-34 -75 c-3 -3 -11 0 -18 7 -9
10 -8 11 6 5 10 -3 15 -9 12 -12z m-628 -117 c0 -8 -4 -12 -9 -9 -5 3 -6 10
-3 15 9 13 12 11 12 -6z m-56 -282 c13 -16 12 -17 -3 -4 -17 13 -22 21 -14 21
2 0 10 -8 17 -17z m-12 -49 c-9 -11 -9 -14 1 -14 8 0 11 -3 7 -6 -12 -12 -28
7 -18 20 6 7 7 17 3 21 -4 5 -1 5 6 1 10 -6 10 -11 1 -22z m58 -99 c0 -8 -4
-12 -9 -9 -5 3 -6 10 -3 15 9 13 12 11 12 -6z m-37 -5 c8 -5 11 -10 5 -10 -5
0 -17 5 -25 10 -8 5 -10 10 -5 10 6 0 17 -5 25 -10z"/>
<path d="M1190 3282 c-9 -10 -15 -36 -15 -63 0 -40 2 -46 15 -36 8 6 12 8 8 3
-4 -5 0 -23 8 -40 15 -31 15 -31 -3 -8 l-19 23 1 -26 c1 -14 7 -31 15 -38 7
-6 10 -7 7 -1 -3 6 0 11 7 11 8 0 12 -14 10 -41 -1 -23 -2 -41 -4 -41 -1 0 -3
-8 -5 -18 -2 -9 1 -15 6 -11 5 3 6 11 3 17 -4 7 -3 8 2 4 12 -11 11 -50 -1
-60 -6 -5 -1 -6 10 -4 11 2 19 9 17 16 -1 7 2 9 8 6 8 -5 6 -13 -6 -26 -13
-15 -14 -19 -3 -19 8 0 20 -10 28 -22 13 -21 13 -22 -2 -10 -12 10 -17 10 -23
1 -4 -7 -3 -10 2 -7 5 3 15 0 22 -8 7 -8 8 -14 2 -14 -5 0 -10 -5 -10 -10 0
-6 3 -9 8 -8 4 2 21 -8 37 -21 17 -13 22 -21 13 -18 -10 3 -19 0 -22 -9 -3 -9
-2 -12 5 -9 5 4 16 1 25 -5 11 -10 12 -16 3 -27 -9 -11 -9 -17 1 -26 10 -10
12 -9 7 4 -4 13 -1 16 16 11 12 -3 16 -7 9 -10 -6 -2 -12 -8 -12 -13 0 -6 4
-7 10 -4 6 3 7 -1 4 -9 -3 -9 -1 -16 5 -16 6 0 11 -5 11 -11 0 -5 -6 -7 -12
-3 -13 8 4 -17 30 -44 7 -8 9 -18 6 -24 -4 -7 -2 -8 5 -4 12 8 8 19 -15 46
-11 14 -10 16 9 17 14 2 17 -1 9 -6 -9 -5 -7 -13 9 -30 16 -17 19 -25 10 -31
-9 -5 -8 -9 4 -14 9 -3 13 -11 9 -17 -4 -8 -3 -9 5 -5 9 6 9 11 1 21 -8 10 -8
15 1 21 7 4 9 3 5 -4 -3 -6 2 -15 11 -21 10 -6 12 -11 6 -11 -7 0 -13 -5 -13
-11 0 -5 5 -7 10 -4 14 9 12 -8 -2 -25 -7 -8 -3 -6 10 5 13 11 23 15 22 10 -5
-23 1 -37 14 -32 8 3 22 -10 37 -35 13 -22 32 -47 41 -56 9 -9 15 -19 12 -24
-3 -4 2 -5 10 -2 13 5 12 9 -6 23 -17 14 -18 18 -5 18 9 0 14 -4 12 -8 -3 -4
2 -10 11 -13 12 -5 14 -9 5 -20 -9 -10 -7 -17 6 -27 11 -9 14 -10 9 -1 -4 6
-2 12 3 12 6 0 11 -5 11 -11 0 -5 4 -7 10 -4 5 3 10 -1 10 -9 0 -9 8 -16 18
-16 11 0 24 -10 31 -22 6 -13 9 -15 7 -6 -4 12 -1 15 10 11 17 -6 18 -15 2
-32 -9 -9 -9 -12 -1 -7 6 3 13 3 16 -1 2 -5 2 -2 1 5 -2 6 1 12 6 12 6 0 10
-8 10 -17 0 -9 3 -14 6 -10 4 3 13 0 21 -8 8 -8 19 -15 26 -15 6 0 2 7 -9 15
-17 14 -17 14 9 3 27 -11 28 -13 10 -26 -17 -13 -17 -14 3 -8 14 4 24 2 27 -8
4 -10 15 -13 32 -10 17 3 24 1 20 -6 -4 -6 1 -7 11 -3 12 5 15 3 9 -6 -6 -10
-3 -11 14 -2 17 10 21 9 21 -3 0 -9 10 -20 21 -27 17 -9 20 -8 14 2 -6 8 -4
11 7 7 12 -5 15 0 13 22 -1 15 -6 33 -10 40 -5 9 -4 11 3 6 7 -4 12 -3 12 3 0
5 -6 12 -12 14 -9 4 -9 8 -3 14 6 4 10 18 11 31 0 18 -3 21 -20 17 -20 -6 -20
-6 -2 9 10 9 23 13 29 9 6 -3 7 -1 3 6 -4 6 -12 9 -17 6 -5 -4 -9 -1 -9 5 0 6
-4 9 -9 6 -5 -3 -12 1 -15 9 -5 13 -2 14 15 4 11 -6 23 -8 27 -5 3 3 0 6 -6 6
-6 0 -9 9 -7 20 3 17 1 18 -15 10 -15 -8 -17 -6 -13 9 3 10 0 22 -7 26 -8 5
-7 12 5 25 14 15 14 18 0 30 -18 15 -20 34 -2 24 8 -6 8 -3 -1 9 -8 9 -11 21
-8 26 7 11 -28 34 -38 24 -3 -3 -6 -1 -6 6 0 6 7 11 16 9 10 -2 19 4 21 12 4
13 3 13 -6 0 -8 -12 -11 -12 -11 -1 0 7 -6 11 -14 8 -11 -5 -13 0 -6 23 7 23
4 31 -18 49 -15 12 -22 21 -16 21 5 0 15 -5 20 -10 7 -7 11 -6 11 4 0 8 -4 13
-9 10 -4 -3 -8 3 -8 13 0 15 -2 16 -10 3 -9 -14 -12 -7 -9 16 0 4 -5 11 -13
15 -11 8 -11 10 0 18 11 7 10 9 -3 15 -9 3 -13 11 -9 17 5 8 1 8 -14 0 -15 -8
-21 -7 -25 4 -4 9 -1 12 7 9 7 -3 13 2 13 10 0 8 -4 13 -9 10 -4 -3 -8 0 -8 6
0 6 -5 8 -11 4 -8 -5 -10 1 -7 20 4 18 2 24 -6 17 -7 -5 -20 1 -36 17 -14 13
-19 22 -12 18 6 -4 12 -3 12 2 0 12 -29 24 -39 17 -4 -2 -8 2 -8 9 0 8 7 12
16 9 9 -2 7 1 -4 8 -38 24 -45 35 -32 50 7 7 3 6 -8 -3 -19 -15 -21 -15 -39
10 l-20 27 22 -19 c12 -11 22 -15 22 -10 0 15 -38 35 -45 24 -8 -13 -25 -13
-25 1 0 5 5 7 10 4 6 -3 10 -1 10 4 0 6 -6 11 -14 11 -8 0 -23 15 -35 33 -11
17 -21 27 -21 21 0 -5 6 -16 13 -23 10 -10 9 -11 -5 -6 -10 4 -18 13 -18 20 0
21 -18 27 -42 14 -21 -11 -22 -11 -9 5 12 14 12 16 -4 9 -14 -5 -17 -3 -12 10
4 11 2 14 -8 10 -8 -3 -12 -10 -8 -16 3 -6 1 -7 -6 -3 -9 6 -9 11 -1 21 8 9 6
14 -5 19 -9 3 -13 2 -10 -4 3 -6 -1 -7 -9 -4 -9 3 -13 10 -10 15 3 5 1 9 -5 9
-5 0 -11 -6 -14 -12 -3 -10 -8 -10 -18 1 -12 12 -12 13 0 6 10 -6 12 -4 7 4
-5 7 -15 10 -23 7 -10 -4 -13 -2 -10 8 10 25 -6 28 -21 4 -7 -13 -11 -16 -8
-6 2 9 -5 24 -17 35 -15 12 -18 13 -9 2 11 -14 9 -16 -13 -11 -22 4 -24 7 -13
20 12 14 10 14 -11 2 -21 -11 -23 -10 -18 4 3 8 1 18 -5 22 -6 4 -8 3 -4 -4 3
-6 2 -13 -4 -17 -5 -3 -10 1 -10 11 0 12 -3 14 -13 5 -8 -6 -17 -7 -23 -2 -5
6 -15 3 -24 -7z m12 -46 c7 4 8 2 4 -5 -9 -13 -26 -5 -25 12 0 9 2 8 6 -1 2
-6 10 -9 15 -6z m355 -111 c0 -8 -4 -12 -9 -9 -5 3 -6 10 -3 15 9 13 12 11 12
-6z m328 -325 c3 -5 1 -10 -4 -10 -6 0 -11 5 -11 10 0 6 2 10 4 10 3 0 8 -4
11 -10z m120 -300 c3 -5 1 -10 -4 -10 -6 0 -11 5 -11 10 0 6 2 10 4 10 3 0 8
-4 11 -10z m30 -280 c-3 -5 -12 -10 -18 -10 -7 0 -6 4 3 10 19 12 23 12 15 0z"/>
<path d="M3535 3249 c-4 -6 -5 -12 -2 -15 2 -3 7 2 10 11 7 17 1 20 -8 4z"/>
<path d="M1716 3242 c-3 -5 1 -9 9 -9 8 0 12 4 9 9 -3 4 -7 8 -9 8 -2 0 -6 -4
-9 -8z"/>
<path d="M636 3195 c-3 -8 -1 -15 4 -15 6 0 10 7 10 15 0 8 -2 15 -4 15 -2 0
-6 -7 -10 -15z"/>
<path d="M821 3184 c0 -11 3 -14 6 -6 3 7 2 16 -1 19 -3 4 -6 -2 -5 -13z"/>
<path d="M4083 3183 c-10 -10 -14 -15 -8 -11 7 4 14 5 17 2 3 -2 8 2 11 11 8
19 4 19 -20 -2z"/>
<path d="M4203 3193 c-13 -2 -23 -9 -23 -14 0 -6 5 -7 10 -4 6 4 17 1 25 -5
11 -9 14 -7 12 9 -1 12 -1 20 -2 20 0 -1 -10 -4 -22 -6z"/>
<path d="M4146 3178 c3 -4 9 -8 15 -8 5 0 9 4 9 8 0 5 -7 9 -15 9 -8 0 -12 -4
-9 -9z"/>
<path d="M3895 3170 c4 -6 1 -18 -7 -27 -12 -15 -11 -15 10 -4 19 10 21 15 11
27 -13 16 -23 19 -14 4z"/>
<path d="M4585 3170 c-3 -6 1 -7 9 -4 18 7 21 14 7 14 -6 0 -13 -4 -16 -10z"/>
<path d="M3709 3168 c-6 -27 -5 -39 4 -45 7 -3 9 -3 5 2 -4 4 -3 14 3 21 7 8
7 14 -1 19 -5 3 -10 5 -11 3z"/>
<path d="M330 3131 c0 -6 4 -13 10 -16 6 -3 7 1 4 9 -7 18 -14 21 -14 7z"/>
<path d="M1187 3073 c3 -7 10 -10 16 -6 6 4 8 0 4 -11 -4 -9 -3 -15 2 -11 16
9 8 41 -10 41 -9 0 -15 -6 -12 -13z"/>
<path d="M1798 2923 c7 -3 16 -2 19 1 4 3 -2 6 -13 5 -11 0 -14 -3 -6 -6z"/>
<path d="M4559 2928 c-6 -16 -4 -58 4 -58 5 0 7 7 4 15 -4 8 -2 17 3 20 13 8
13 25 0 25 -5 0 -10 -1 -11 -2z"/>
<path d="M4364 2855 c1 -8 6 -18 11 -22 4 -4 5 -3 2 4 -4 6 -2 13 5 15 8 3 6
6 -4 10 -10 4 -15 2 -14 -7z"/>
<path d="M2825 2851 c-3 -5 -1 -12 4 -15 5 -3 11 1 15 9 6 16 -9 21 -19 6z"/>
<path d="M1287 2825 c3 -8 9 -12 14 -9 12 7 11 11 -5 17 -10 4 -13 1 -9 -8z"/>
<path d="M367 2824 c-8 -9 11 -44 24 -44 6 0 3 7 -5 16 -9 8 -14 20 -11 25 7
10 1 12 -8 3z"/>
<path d="M1316 2782 c-3 -5 1 -9 9 -9 8 0 12 4 9 9 -3 4 -7 8 -9 8 -2 0 -6 -4
-9 -8z"/>
<path d="M2777 2756 c-3 -8 0 -17 7 -19 10 -4 12 1 9 14 -6 23 -9 24 -16 5z"/>
<path d="M4345 2761 c-3 -5 -2 -12 3 -15 5 -3 9 1 9 9 0 17 -3 19 -12 6z"/>
<path d="M556 2747 c3 -10 9 -15 12 -12 3 3 0 11 -7 18 -10 9 -11 8 -5 -6z"/>
<path d="M1160 2720 c0 -5 5 -10 11 -10 5 0 7 5 4 10 -3 6 -8 10 -11 10 -2 0
-4 -4 -4 -10z"/>
<path d="M2955 2699 c-4 -6 -5 -12 -2 -15 2 -3 7 2 10 11 7 17 1 20 -8 4z"/>
<path d="M578 2678 c5 -5 16 -8 23 -6 8 3 3 7 -10 11 -17 4 -21 3 -13 -5z"/>
<path d="M2756 2664 c-17 -16 -21 -34 -8 -34 4 0 12 11 19 25 13 29 11 31 -11
9z"/>
<path d="M3510 2650 c-9 -6 -10 -10 -3 -10 6 0 15 5 18 10 8 12 4 12 -15 0z"/>
<path d="M417 2636 c-3 -8 1 -17 10 -20 8 -4 13 -13 9 -21 -3 -8 -1 -15 4 -15
5 0 9 11 8 24 -1 14 -7 22 -12 19 -5 -4 -7 1 -3 10 3 10 2 17 -2 17 -5 0 -11
-6 -14 -14z"/>
<path d="M3662 2594 c-7 -8 -8 -14 -3 -14 10 0 25 19 20 25 -2 1 -10 -3 -17
-11z"/>
<path d="M2150 2596 c0 -2 7 -7 16 -10 8 -3 12 -2 9 4 -6 10 -25 14 -25 6z"/>
<path d="M1241 2573 c6 -7 17 -13 23 -12 7 0 6 2 -2 6 -6 2 -10 8 -8 12 3 4
-1 8 -9 8 -11 0 -12 -4 -4 -14z"/>
<path d="M4450 2559 c0 -5 5 -7 10 -4 6 3 10 8 10 11 0 2 -4 4 -10 4 -5 0 -10
-5 -10 -11z"/>
<path d="M1530 2505 c0 -3 10 -16 21 -28 l21 -22 -11 22 c-11 22 -31 40 -31
28z"/>
<path d="M2000 2465 c0 -2 6 -8 13 -14 10 -8 14 -7 14 2 0 8 -6 14 -14 14 -7
0 -13 -1 -13 -2z"/>
<path d="M525 2410 c-3 -6 1 -7 9 -4 18 7 21 14 7 14 -6 0 -13 -4 -16 -10z"/>
<path d="M2687 2396 c-4 -10 -1 -13 9 -9 15 6 19 23 5 23 -5 0 -11 -7 -14 -14z"/>
<path d="M1415 2371 c-3 -5 -1 -12 5 -16 5 -3 10 1 10 9 0 18 -6 21 -15 7z"/>
<path d="M556 2338 c3 -4 9 -8 15 -8 5 0 9 4 9 8 0 5 -7 9 -15 9 -8 0 -12 -4
-9 -9z"/>
<path d="M778 2333 c6 -2 9 -10 6 -15 -4 -7 -2 -8 5 -4 13 9 5 26 -12 25 -9 0
-8 -2 1 -6z"/>
<path d="M2684 2325 c1 -8 6 -18 11 -22 4 -4 5 -3 2 4 -4 6 -2 13 5 15 8 3 6
6 -4 10 -10 4 -15 2 -14 -7z"/>
<path d="M4065 2271 c-3 -5 0 -13 6 -17 7 -4 9 -3 5 4 -3 5 0 13 6 15 9 4 10
6 1 6 -6 1 -14 -3 -18 -8z"/>
<path d="M2214 2240 c0 -13 4 -16 10 -10 7 7 7 13 0 20 -6 6 -10 3 -10 -10z"/>
<path d="M1581 2234 c-1 -6 5 -17 12 -23 10 -8 14 -7 14 4 0 8 -4 12 -8 9 -4
-2 -10 2 -12 8 -4 8 -6 9 -6 2z"/>
<path d="M647 2216 c-7 -18 18 -42 28 -26 4 6 1 9 -7 8 -8 -2 -12 4 -10 15 3
21 -4 23 -11 3z"/>
<path d="M4031 2216 c-8 -10 -9 -16 -1 -21 6 -4 9 -1 8 7 -2 7 3 12 10 10 8
-1 11 2 7 8 -8 13 -10 13 -24 -4z"/>
<path d="M2216 2117 c3 -10 9 -15 12 -12 3 3 0 11 -7 18 -10 9 -11 8 -5 -6z"/>
<path d="M4135 2080 c-3 -5 -2 -10 4 -10 5 0 13 5 16 10 3 6 2 10 -4 10 -5 0
-13 -4 -16 -10z"/>
<path d="M1876 2061 c-3 -4 1 -17 10 -27 14 -18 15 -18 5 2 -6 12 -7 24 -4 28
3 3 4 6 0 6 -3 0 -8 -4 -11 -9z"/>
<path d="M2212 2045 c-7 -8 -9 -15 -4 -15 5 0 15 7 22 15 16 19 -1 19 -18 0z"/>
<path d="M2046 2001 c-4 -5 -2 -12 3 -15 5 -4 12 -2 15 3 4 5 2 12 -3 15 -5 4
-12 2 -15 -3z"/>
<path d="M3642 1851 c-11 -7 -11 -9 0 -14 9 -3 15 1 15 9 0 8 -1 14 -1 14 -1
0 -7 -4 -14 -9z"/>
<path d="M3590 1810 c0 -5 5 -10 10 -10 6 0 10 5 10 10 0 6 -4 10 -10 10 -5 0
-10 -4 -10 -10z"/>
<path d="M1406 1733 c-6 -14 -5 -15 5 -6 7 7 10 15 7 18 -3 3 -9 -2 -12 -12z"/>
<path d="M3446 1707 c3 -10 9 -15 12 -12 3 3 0 11 -7 18 -10 9 -11 8 -5 -6z"/>
<path d="M3670 1649 c0 -5 -4 -7 -10 -4 -5 3 -10 1 -10 -4 0 -15 13 -14 36 4
17 13 17 14 2 15 -10 0 -18 -5 -18 -11z"/>
<path d="M1607 1623 c4 -11 8 -12 13 -2 6 8 10 6 13 -7 6 -19 6 -19 4 0 -1 11
-10 20 -19 22 -11 1 -15 -3 -11 -13z"/>
<path d="M1356 1577 c3 -10 9 -15 12 -12 3 3 0 11 -7 18 -10 9 -11 8 -5 -6z"/>
<path d="M3085 1550 c-3 -5 -1 -10 4 -10 6 0 11 5 11 10 0 6 -2 10 -4 10 -3 0
-8 -4 -11 -10z"/>
<path d="M3110 1550 c0 -5 5 -10 10 -10 6 0 10 5 10 10 0 6 -4 10 -10 10 -5 0
-10 -4 -10 -10z"/>
<path d="M2041 1471 c-8 -5 -9 -11 -3 -15 5 -3 12 1 16 9 6 17 6 18 -13 6z"/>
<path d="M3275 1440 c-3 -5 -1 -10 4 -10 6 0 11 5 11 10 0 6 -2 10 -4 10 -3 0
-8 -4 -11 -10z"/>
<path d="M1670 1408 c0 -4 4 -8 9 -8 6 0 12 4 15 8 3 5 -1 9 -9 9 -8 0 -15 -4
-15 -9z"/>
<path d="M1946 1308 c3 -5 10 -6 15 -3 13 9 11 12 -6 12 -8 0 -12 -4 -9 -9z"/>
<path d="M2080 1200 c-9 -6 -10 -10 -3 -10 6 0 15 5 18 10 8 12 4 12 -15 0z"/>
<path d="M2075 1023 c1 -16 -2 -33 -7 -39 -5 -7 -3 -16 4 -22 10 -8 13 0 14
39 0 27 -2 49 -6 49 -4 0 -6 -12 -5 -27z"/>
<path d="M2819 908 c-6 -21 -5 -38 1 -38 5 0 8 9 7 20 -1 17 -5 26 -8 18z"/>
<path d="M2813 815 c0 -8 4 -12 9 -9 5 3 6 10 3 15 -9 13 -12 11 -12 -6z"/>
<path d="M2819 748 c-6 -21 -5 -38 1 -38 5 0 8 9 7 20 -1 17 -5 26 -8 18z"/>
<path d="M2459 613 c-13 -16 -12 -17 4 -4 16 13 21 21 13 21 -2 0 -10 -8 -17
-17z"/>
<path d="M2530 618 c0 -4 4 -8 9 -8 6 0 12 4 15 8 3 5 -1 9 -9 9 -8 0 -15 -4
-15 -9z"/>
<path d="M2065 611 c-6 -11 13 -26 22 -17 4 3 0 6 -8 6 -11 0 -11 2 1 10 9 6
10 10 3 10 -6 0 -14 -4 -18 -9z"/>
<path d="M2086 473 c-6 -14 -5 -15 5 -6 7 7 10 15 7 18 -3 3 -9 -2 -12 -12z"/>
<path d="M2326 454 c-5 -14 -4 -15 9 -4 17 14 19 20 6 20 -5 0 -12 -7 -15 -16z"/>
<path d="M5016 4862 c-2 -4 0 -14 6 -22 8 -12 9 -12 5 2 -3 9 -1 19 6 22 9 3
9 5 0 5 -6 1 -14 -3 -17 -7z"/>
<path d="M5016 4542 c-2 -4 0 -14 6 -22 8 -12 9 -12 5 2 -3 9 -1 19 6 22 9 3
9 5 0 5 -6 1 -14 -3 -17 -7z"/>
<path d="M5016 4222 c-2 -4 0 -14 6 -22 8 -12 9 -12 5 2 -3 9 -1 19 6 22 9 3
9 5 0 5 -6 1 -14 -3 -17 -7z"/>
<path d="M5016 3902 c-2 -4 0 -14 6 -22 8 -12 9 -12 5 2 -3 9 -1 19 6 22 9 3
9 5 0 5 -6 1 -14 -3 -17 -7z"/>
<path d="M5016 3582 c-2 -4 0 -14 6 -22 8 -12 9 -12 5 2 -3 9 -1 19 6 22 9 3
9 5 0 5 -6 1 -14 -3 -17 -7z"/>
<path d="M5016 3262 c-2 -4 0 -14 6 -22 8 -12 9 -12 5 2 -3 9 -1 19 6 22 9 3
9 5 0 5 -6 1 -14 -3 -17 -7z"/>
<path d="M5016 2942 c-2 -4 0 -14 6 -22 8 -12 9 -12 5 2 -3 9 -1 19 6 22 9 3
9 5 0 5 -6 1 -14 -3 -17 -7z"/>
<path d="M5016 2622 c-2 -4 0 -14 6 -22 8 -12 9 -12 5 2 -3 9 -1 19 6 22 9 3
9 5 0 5 -6 1 -14 -3 -17 -7z"/>
<path d="M5016 2302 c-2 -4 0 -14 6 -22 8 -12 9 -12 5 2 -3 9 -1 19 6 22 9 3
9 5 0 5 -6 1 -14 -3 -17 -7z"/>
<path d="M5016 1982 c-2 -4 0 -14 6 -22 8 -12 9 -12 5 2 -3 9 -1 19 6 22 9 3
9 5 0 5 -6 1 -14 -3 -17 -7z"/>
<path d="M5016 1662 c-2 -4 0 -14 6 -22 8 -12 9 -12 5 2 -3 9 -1 19 6 22 9 3
9 5 0 5 -6 1 -14 -3 -17 -7z"/>
<path d="M95 880 c-3 -5 1 -10 10 -10 9 0 13 5 10 10 -3 6 -8 10 -10 10 -2 0
-7 -4 -10 -10z"/>
<path d="M221 764 c0 -11 3 -14 6 -6 3 7 2 16 -1 19 -3 4 -6 -2 -5 -13z"/>
<path d="M413 685 c0 -8 4 -12 8 -9 4 2 10 -2 12 -8 4 -8 6 -9 6 -2 1 6 -5 17
-12 23 -10 8 -14 7 -14 -4z"/>
<path d="M666 597 c3 -10 9 -15 12 -12 3 3 0 11 -7 18 -10 9 -11 8 -5 -6z"/>
<path d="M4196 591 c-4 -7 -5 -15 -2 -18 9 -9 19 4 14 18 -4 11 -6 11 -12 0z"/>
<path d="M760 576 c0 -2 8 -10 18 -17 15 -13 16 -12 3 4 -13 16 -21 21 -21 13z"/>
<path d="M3808 462 c4 -10 7 -12 10 -4 2 7 9 9 15 5 7 -3 8 -2 4 2 -14 16 -36
14 -29 -3z"/>
<path d="M3675 419 c-4 -6 -5 -12 -2 -15 2 -3 7 2 10 11 7 17 1 20 -8 4z"/>
<path d="M3626 407 c3 -10 9 -15 12 -12 3 3 0 11 -7 18 -10 9 -11 8 -5 -6z"/>
<path d="M3355 321 c-3 -5 -2 -12 3 -15 5 -3 9 1 9 9 0 17 -3 19 -12 6z"/>
<path d="M3285 290 c-3 -5 -1 -10 4 -10 6 0 11 5 11 10 0 6 -2 10 -4 10 -3 0
-8 -4 -11 -10z"/>
<path d="M2140 96 c0 -2 9 -6 20 -9 11 -3 18 -1 14 4 -5 9 -34 13 -34 5z"/>
<path d="M2660 70 c-9 -6 -10 -10 -3 -10 6 0 15 5 18 10 8 12 4 12 -15 0z"/>
<path d="M2310 44 c0 -8 5 -12 10 -9 6 4 8 11 5 16 -9 14 -15 11 -15 -7z"/>
<path d="M2535 29 c-4 -6 -4 -13 -1 -16 3 -4 6 -1 6 6 0 7 5 9 12 5 7 -4 8 -3
4 4 -9 15 -13 15 -21 1z"/>
</g>
</svg>
